<svg width="28" height="30" viewBox="0 0 28 30" fill="none" xmlns="http://www.w3.org/2000/svg">
<path d="M3.73333 0C1.67417 0 0 1.67417 0 3.73333V26.1333C0 28.1925 1.67417 29.8667 3.73333 29.8667H20.5333C22.5925 29.8667 24.2667 28.1925 24.2667 26.1333V3.73333C24.2667 1.67417 22.5925 0 20.5333 0H3.73333ZM10.2667 16.8H14C16.5783 16.8 18.6667 18.8883 18.6667 21.4667C18.6667 21.98 18.2467 22.4 17.7333 22.4H6.53333C6.02 22.4 5.6 21.98 5.6 21.4667C5.6 18.8883 7.68833 16.8 10.2667 16.8ZM8.4 11.2C8.4 10.2099 8.79333 9.26027 9.49347 8.56013C10.1936 7.86 11.1432 7.46667 12.1333 7.46667C13.1235 7.46667 14.0731 7.86 14.7732 8.56013C15.4733 9.26027 15.8667 10.2099 15.8667 11.2C15.8667 12.1901 15.4733 13.1397 14.7732 13.8399C14.0731 14.54 13.1235 14.9333 12.1333 14.9333C11.1432 14.9333 10.1936 14.54 9.49347 13.8399C8.79333 13.1397 8.4 12.1901 8.4 11.2ZM28 4.66667C28 4.15333 27.58 3.73333 27.0667 3.73333C26.5533 3.73333 26.1333 4.15333 26.1333 4.66667V8.4C26.1333 8.91333 26.5533 9.33333 27.0667 9.33333C27.58 9.33333 28 8.91333 28 8.4V4.66667ZM27.0667 11.2C26.5533 11.2 26.1333 11.62 26.1333 12.1333V15.8667C26.1333 16.38 26.5533 16.8 27.0667 16.8C27.58 16.8 28 16.38 28 15.8667V12.1333C28 11.62 27.58 11.2 27.0667 11.2ZM28 19.6C28 19.0867 27.58 18.6667 27.0667 18.6667C26.5533 18.6667 26.1333 19.0867 26.1333 19.6V23.3333C26.1333 23.8467 26.5533 24.2667 27.0667 24.2667C27.58 24.2667 28 23.8467 28 23.3333V19.6Z" fill="#22EFFC"/>
</svg>
