<svg width="28" height="19" viewBox="0 0 28 19" fill="none" xmlns="http://www.w3.org/2000/svg">
<path d="M2.1 0C0.940625 0 0 0.940625 0 2.1C0 2.76063 0.310625 3.38188 0.84 3.78L10.36 10.92C10.8588 11.2919 11.5413 11.2919 12.04 10.92L14.5513 9.03875C15.5969 6.4225 18.0381 4.51938 20.9519 4.235L21.56 3.78C22.0894 3.38188 22.4 2.76063 22.4 2.1C22.4 0.940625 21.4594 0 20.3 0H2.1ZM12.88 12.04C11.8825 12.7881 10.5175 12.7881 9.52 12.04L0 4.9V14C0 15.5444 1.25563 16.8 2.8 16.8H15.7587C14.6606 15.47 14 13.7594 14 11.9C14 11.655 14.0131 11.4144 14.035 11.1738L12.88 12.04ZM28 11.9C28 10.2291 27.3363 8.62671 26.1548 7.44523C24.9733 6.26375 23.3709 5.6 21.7 5.6C20.0291 5.6 18.4267 6.26375 17.2452 7.44523C16.0637 8.62671 15.4 10.2291 15.4 11.9C15.4 13.5709 16.0637 15.1733 17.2452 16.3548C18.4267 17.5363 20.0291 18.2 21.7 18.2C23.3709 18.2 24.9733 17.5363 26.1548 16.3548C27.3363 15.1733 28 13.5709 28 11.9ZM24.6444 10.0056C24.9156 10.2769 24.9156 10.7231 24.6444 10.9944L21.4944 14.1444C21.2231 14.4156 20.7769 14.4156 20.5056 14.1444L18.7556 12.3944C18.4844 12.1231 18.4844 11.6769 18.7556 11.4056C19.0269 11.1344 19.4731 11.1344 19.7444 11.4056L21 12.6613L23.6556 10.0056C23.9269 9.73438 24.3731 9.73438 24.6444 10.0056Z" fill="#22EFFC"/>
</svg>
