<svg width="28" height="23" viewBox="0 0 28 23" fill="none" xmlns="http://www.w3.org/2000/svg">
<path d="M9.10079 15.4005C14.1278 15.4005 18.2011 11.9529 18.2011 7.70026C18.2011 3.44762 14.1278 0 9.10079 0C4.07374 0 0.000478836 3.44762 0.000478836 7.70026C0.000478836 9.38907 0.643626 10.951 1.73304 12.2242C1.57991 12.6354 1.3524 12.9986 1.11177 13.3048C0.901759 13.5761 0.687377 13.7861 0.529872 13.9305C0.451119 14.0005 0.385492 14.0574 0.34174 14.0924C0.319865 14.1099 0.302364 14.123 0.293614 14.1274L0.284863 14.1361C0.0442303 14.3155 -0.0607732 14.6305 0.03548 14.9149C0.131733 15.1993 0.398617 15.4005 0.700503 15.4005C1.65428 15.4005 2.61682 15.1555 3.41747 14.8536C3.81998 14.7005 4.19625 14.5299 4.52438 14.3549C5.86755 15.0199 7.42948 15.4005 9.10079 15.4005ZM19.6011 7.70026C19.6011 12.6136 15.2654 16.3149 10.1289 16.7568C11.1921 20.0119 14.7185 22.4008 18.9011 22.4008C20.5724 22.4008 22.1344 22.0201 23.4819 21.3551C23.81 21.5301 24.1819 21.7007 24.5844 21.8539C25.3851 22.1558 26.3476 22.4008 27.3014 22.4008C27.6033 22.4008 27.8745 22.2039 27.9664 21.9151C28.0583 21.6264 27.9577 21.3113 27.7127 21.132L27.7039 21.1232C27.6952 21.1145 27.6777 21.1057 27.6558 21.0882C27.612 21.0532 27.5464 21.0007 27.4677 20.9263C27.3102 20.782 27.0958 20.5719 26.8858 20.3007C26.6451 19.9944 26.4176 19.6269 26.2645 19.22C27.3539 17.9512 27.9971 16.3893 27.9971 14.6961C27.9971 10.636 24.2826 7.3065 19.5705 7.01774C19.588 7.24087 19.5968 7.46838 19.5968 7.69589L19.6011 7.70026Z" fill="#22EFFC"/>
</svg>
