<svg width="32" height="32" viewBox="0 0 32 32" fill="none" xmlns="http://www.w3.org/2000/svg">
<path d="M32 15.9311L31.9835 15.246V2.29701L28.4035 5.87702C25.474 2.29051 21.0165 0 16.0249 0C10.8249 0 6.21391 2.48001 3.2959 6.32002L9.16392 12.25C9.7385 11.1886 10.5523 10.2755 11.5409 9.58303C12.5659 8.78303 14.0169 8.13003 16.0249 8.13003C16.2674 8.13003 16.4549 8.15853 16.5924 8.21153C19.0805 8.40803 21.2365 9.78153 22.5065 11.7735L18.3529 15.9271L32 15.9301" fill="#1C3AA9"/>
<path d="M15.9311 0.000488281L15.246 0.0169883H2.29701L5.87702 3.597C2.29001 6.52701 0 10.9835 0 15.9765C0 21.1766 2.48001 25.7876 6.32002 28.7056L12.25 22.8376C11.1886 22.263 10.2755 21.4492 9.58303 20.4606C8.78303 19.4355 8.13003 17.9845 8.13003 15.9765C8.13003 15.734 8.15853 15.5465 8.21153 15.409C8.40803 12.921 9.78153 10.765 11.7735 9.49502L15.9271 13.6485L15.9301 0.000988284" fill="#4285F4"/>
<path d="M0.000488281 15.9761L0.0169883 16.6611V29.6101L3.597 26.0301C6.52701 29.6166 10.984 31.9071 15.977 31.9071C21.1771 31.9071 25.7881 29.4271 28.7061 25.5871L22.8381 19.6571C22.2635 20.7185 21.4497 21.6316 20.4611 22.3241C19.4361 23.1241 17.985 23.7771 15.977 23.7771C15.7345 23.7771 15.547 23.7486 15.4095 23.6956C12.9215 23.4991 10.7655 22.1256 9.49552 20.1336L13.649 15.9801C8.38802 16.0001 2.449 16.0131 0.00148828 15.9776" fill="#ABABAB"/>
</svg>
