<svg width="23" height="30" viewBox="0 0 23 30" fill="none" xmlns="http://www.w3.org/2000/svg">
<path d="M12.6715 29.3259C15.6851 25.5544 22.5584 16.4136 22.5584 11.2792C22.5584 5.05214 17.5062 0 11.2792 0C5.05214 0 0 5.05214 0 11.2792C0 16.4136 6.87326 25.5544 9.88691 29.3259C10.6095 30.2247 11.9489 30.2247 12.6715 29.3259ZM11.2792 7.51946C12.2763 7.51946 13.2326 7.91557 13.9377 8.62066C14.6428 9.32574 15.0389 10.282 15.0389 11.2792C15.0389 12.2763 14.6428 13.2326 13.9377 13.9377C13.2326 14.6428 12.2763 15.0389 11.2792 15.0389C10.282 15.0389 9.32574 14.6428 8.62066 13.9377C7.91557 13.2326 7.51946 12.2763 7.51946 11.2792C7.51946 10.282 7.91557 9.32574 8.62066 8.62066C9.32574 7.91557 10.282 7.51946 11.2792 7.51946Z" fill="#22EFFC"/>
</svg>
