<svg width="51" height="50" viewBox="0 0 51 50" fill="none" xmlns="http://www.w3.org/2000/svg">
<path fill-rule="evenodd" clip-rule="evenodd" d="M46.6123 0.87868C45.4407 -0.292892 43.5413 -0.292894 42.3697 0.878679L37.7077 5.54069L44.491 12.324L49.153 7.66201C50.3246 6.49043 50.3246 4.59094 49.153 3.41937L46.6123 0.87868ZM29.6164 5.68374C31.2011 5.68374 32.4987 6.91233 32.6089 8.46892L25.8086 15.2692C24.252 15.1591 23.0234 13.8614 23.0234 12.2768V8.68374C23.0234 7.02688 24.3665 5.68374 26.0234 5.68374H29.6164ZM18.1048 17.1954C19.6894 17.1954 20.9871 18.424 21.0972 19.9806L20.365 20.7128L21.1048 21.4526L20.365 20.7128L17.7239 26.7885H14.5117C12.8548 26.7885 11.5117 25.4454 11.5117 23.7885V20.1954C11.5117 18.5386 12.8548 17.1954 14.5117 17.1954H18.1048ZM29.319 29.6668L28.3593 28.7071L29.319 29.6668L30.2787 28.7071H41.1281C42.785 28.7071 44.1281 30.0503 44.1281 31.7071V35.3002C44.1281 36.957 42.785 38.3002 41.1281 38.3002H26.0234C24.3665 38.3002 23.0234 36.957 23.0234 35.3002V32.4034L29.319 29.6668ZM37.5351 26.7885C36.0843 26.7885 34.8741 25.7588 34.5954 24.3903L44.1281 14.8576V23.7885C44.1281 25.4453 42.785 26.7885 41.1281 26.7885H37.5351ZM14.8569 33.3841L16.8899 28.7071H14.5117C12.8548 28.7071 11.5117 30.0503 11.5117 31.7071V35.3002C11.5117 36.957 12.8548 38.3002 14.5117 38.3002H18.1048C19.7616 38.3002 21.1048 36.957 21.1048 35.3002V33.2374L16.6477 35.1749L16.6478 35.1751L14.2492 36.141L13.8911 35.7829L14.857 33.3843L14.8569 33.3841ZM0 8.68365C0 7.02679 1.34315 5.68365 3 5.68365H6.59307C8.24993 5.68365 9.59307 7.0268 9.59307 8.68365V12.2767C9.59307 13.9336 8.24992 15.2767 6.59307 15.2767H3C1.34314 15.2767 0 13.9336 0 12.2767V8.68365ZM0 20.1954C0 18.5386 1.34315 17.1954 3 17.1954H6.59307C8.24993 17.1954 9.59307 18.5386 9.59307 20.1954V23.7885C9.59307 25.4454 8.24992 26.7885 6.59307 26.7885H3C1.34314 26.7885 0 25.4454 0 23.7885V20.1954ZM3 28.7071C1.34315 28.7071 0 30.0503 0 31.7071V35.3002C0 36.957 1.34314 38.3002 3 38.3002H6.59307C8.24992 38.3002 9.59307 36.957 9.59307 35.3002V31.7071C9.59307 30.0503 8.24993 28.7071 6.59307 28.7071H3ZM0 43.2188C0 41.5619 1.34315 40.2188 3 40.2188H41.1281C42.785 40.2188 44.1281 41.562 44.1281 43.2188V46.8119C44.1281 48.4687 42.785 49.8119 41.1281 49.8119H3C1.34314 49.8119 0 48.4687 0 46.8119V43.2188ZM14.5117 5.68374C12.8548 5.68374 11.5117 7.02688 11.5117 8.68374V12.2768C11.5117 13.9337 12.8548 15.2768 14.5117 15.2768H18.1048C19.7616 15.2768 21.1048 13.9337 21.1048 12.2768V8.68374C21.1048 7.02688 19.7616 5.68374 18.1048 5.68374H14.5117ZM21.4278 21.8206L28.2112 28.6039L18.7145 32.6739L17.3578 31.3173L21.4278 21.8206ZM43.1343 13.6808L36.351 6.89748L22.7843 20.4641L29.5677 27.2475L43.1343 13.6808Z" fill="#555555"/>
</svg>
