<svg width="25" height="28" viewBox="0 0 25 28" fill="none" xmlns="http://www.w3.org/2000/svg">
<path d="M14.3742 0C6.4314 0 0 6.26875 0 14C0 21.7312 6.4314 28 14.3742 28C18.2716 28 21.8025 26.4875 24.3943 24.0375C24.7159 23.7313 24.7995 23.2562 24.5937 22.8687C24.3879 22.4812 23.9441 22.2625 23.5004 22.3375C22.8701 22.4437 22.2269 22.5 21.5645 22.5C15.3325 22.5 10.2774 17.575 10.2774 11.5C10.2774 7.3875 12.5927 3.80625 16.0206 1.91875C16.4129 1.7 16.6123 1.2625 16.5158 0.8375C16.4194 0.4125 16.0464 0.0937501 15.5962 0.0562501C15.191 0.0250001 14.7858 0.0062499 14.3742 0.0062499V0Z" fill="white"/>
</svg>
