<svg width="28" height="32" viewBox="0 0 28 32" fill="none" xmlns="http://www.w3.org/2000/svg">
<path d="M13.4922 1.13458C13.4332 2.0074 13.4096 2.07817 13.1737 2.07817C13.0439 2.07817 12.8788 2.11356 12.8316 2.16074C12.7845 2.21971 12.9142 2.2551 13.1265 2.2551C13.386 2.2551 13.4922 2.30228 13.4686 2.39664C13.4332 2.50279 13.0322 2.57356 12.3009 2.62074L11.1921 2.67971L12.0532 2.7033C12.8906 2.72689 13.0911 2.84484 12.7963 3.13972C12.7255 3.21049 12.7491 3.31664 12.8434 3.39921C12.985 3.52895 13.0204 3.48177 13.0911 3.13972C13.2445 2.32587 13.4332 2.77407 13.4686 4.02434L13.5039 5.23922L12.9968 5.15665C12.6429 5.10947 12.5368 5.12127 12.6665 5.20383C12.9614 5.39255 14.2706 5.34537 14.4358 5.14486C14.5655 4.97973 14.5537 4.97973 14.2706 5.08588C13.6455 5.32178 13.6101 5.2864 13.6101 4.26024C13.6101 3.50536 13.6455 3.31664 13.787 3.31664C13.9286 3.31664 13.964 3.46998 13.964 4.02434C13.964 4.73204 14.0111 4.80281 14.365 4.66127C14.6009 4.56691 14.6127 4.37819 14.3886 4.37819C14.1055 4.37819 13.9404 3.52895 14.1999 3.37562C14.4358 3.23408 14.306 3.08074 13.964 3.08074C13.7281 3.08074 13.6101 3.02177 13.6101 2.90382C13.6101 2.76228 13.8224 2.72689 14.766 2.7033C15.8983 2.67971 15.8983 2.67971 15.0019 2.64433C14.3178 2.60894 14.0819 2.56176 14.0819 2.43202C14.0819 2.34946 14.1409 2.2551 14.2116 2.23151C14.2942 2.20792 14.2706 2.12535 14.1527 2.03099C13.9875 1.88945 13.964 1.91304 13.964 2.2433C13.964 2.491 13.905 2.60894 13.787 2.60894C13.6573 2.60894 13.6101 2.36125 13.5865 1.39406L13.5511 0.190979L13.4922 1.13458Z" fill="#22EFFC"/>
<path d="M13.9641 0.780595C13.9641 0.874955 13.9877 0.95752 14.0113 0.95752C14.0349 0.95752 14.0821 0.874955 14.1292 0.780595C14.1646 0.686236 14.141 0.603671 14.0821 0.603671C14.0113 0.603671 13.9641 0.686236 13.9641 0.780595Z" fill="#22EFFC"/>
<path d="M12.7371 4.29554C12.5602 4.48426 12.5484 4.54324 12.6781 4.6258C12.9966 4.82632 13.1499 4.74375 13.0673 4.4017C13.0202 4.22478 12.9848 4.08324 12.973 4.07144C12.9612 4.07144 12.8668 4.1658 12.7371 4.29554Z" fill="#22EFFC"/>
<path d="M12.4546 6.61933C12.3366 6.9378 12.2895 6.97318 12.089 6.85523C11.9474 6.78446 11.7115 6.76087 11.5464 6.80805C11.3695 6.85523 11.1689 6.81985 11.0628 6.72549C10.7915 6.50138 8.99868 6.48959 8.82175 6.71369C8.7156 6.85523 8.56226 6.86703 7.86636 6.74908C7.0761 6.60754 7.01713 6.61933 6.49815 6.90241C5.93199 7.22087 5.54276 7.30344 5.2125 7.1619C4.95301 7.04395 4.7289 7.46857 4.82326 7.91678C4.90583 8.28242 5.12993 8.42396 5.4366 8.29421C5.92019 8.1055 6.62789 7.52754 6.58071 7.386C6.54533 7.29164 6.63969 7.22087 6.852 7.17369C7.44174 7.06754 8.57406 7.31523 9.50586 7.77524L10.4141 8.22345L10.7443 7.98755C10.9213 7.8578 11.2161 7.6219 11.3931 7.46857C11.57 7.30344 11.7351 7.18549 11.7587 7.22087C11.9828 7.48036 12.7967 8.88396 13.2567 9.80397C13.7756 10.8301 13.8582 10.9363 14.1531 10.9245C14.4833 10.9009 14.7782 10.5353 14.79 10.1224C14.79 10.0045 14.8372 9.93371 14.8962 9.9691C15.0495 10.0635 16.0049 8.18806 15.8987 7.99934C15.8398 7.90498 15.8751 7.91678 16.0049 8.02293C16.17 8.15268 16.2054 8.15268 16.2054 8.01114C16.2054 7.88139 16.0167 7.84601 15.2382 7.88139L14.2592 7.91678L14.6603 7.65729C14.9551 7.46857 15.2736 7.386 15.8162 7.37421C16.229 7.36241 16.8305 7.27985 17.1726 7.19728C17.6444 7.06754 17.7859 7.06754 17.8331 7.18549C17.8567 7.25626 18.0336 7.32703 18.2341 7.32703H18.5998L18.3757 7.58652C18.2577 7.73985 18.2341 7.78703 18.3285 7.70447C18.6116 7.46857 18.6941 7.55113 18.5172 7.89319C18.3167 8.29421 18.0572 9.56807 18.1162 9.87474C18.1752 10.146 18.5054 9.46192 18.9064 8.23524C19.2131 7.32703 19.1777 7.12651 18.6941 6.96139C18.5054 6.89062 18.2577 6.71369 18.1516 6.54856C17.9864 6.28907 17.8921 6.26548 17.09 6.26548C16.3233 6.26548 16.1936 6.30087 16.0285 6.52497C15.9223 6.67831 15.6156 6.85523 15.3208 6.9378C14.8372 7.05574 14.7782 7.04395 14.6721 6.85523C14.6013 6.73728 14.5541 6.54856 14.5541 6.44241C14.5541 6.27728 14.4833 6.25369 14.1177 6.32446C13.5633 6.43061 13.5397 6.43061 13.009 6.32446C12.6079 6.25369 12.5725 6.26548 12.4546 6.61933Z" fill="#22EFFC"/>
<path d="M21.6306 6.8433C21.3947 6.97305 20.4629 7.22074 20.0972 7.24433C19.6372 7.27972 19.5547 7.62177 19.5665 9.57973C19.5665 11.1956 19.5901 11.3962 19.767 11.3962C19.8731 11.3962 20.0029 11.4433 20.0501 11.4905C20.2034 11.6438 20.8993 11.5731 21.088 11.3962C21.2885 11.1838 21.4537 10.4879 21.3593 10.2285C21.3239 10.1341 21.3475 9.69768 21.4065 9.24947C21.548 8.29408 21.3947 7.85767 20.9701 7.96382C20.8285 7.99921 20.5808 7.98741 20.4275 7.92844C20.1562 7.82229 20.1562 7.82229 20.5101 7.66895C20.7106 7.58639 21.0173 7.40946 21.206 7.27972C21.4537 7.11459 21.5716 7.091 21.607 7.18536C21.6306 7.26792 21.8311 7.3269 22.067 7.3269C22.4326 7.3269 22.4562 7.3151 22.2911 7.13818C22.185 7.04382 22.1024 6.90228 22.1024 6.8433C22.1024 6.71356 21.8783 6.71356 21.6306 6.8433Z" fill="#22EFFC"/>
<path d="M17.1607 7.33856C17.0073 7.39753 16.913 7.4801 16.9483 7.51548C16.9837 7.55087 17.1607 7.50369 17.3494 7.39753C17.715 7.19702 17.5971 7.16163 17.1607 7.33856Z" fill="#22EFFC"/>
<path d="M0.859901 7.46848C0.777336 7.6454 0.789131 8.15259 0.883491 8.15259C0.942466 8.15259 0.989646 7.98746 0.989646 7.79874C0.989646 7.50387 0.918876 7.33874 0.859901 7.46848Z" fill="#22EFFC"/>
<path d="M4.18617 8.14074C4.44566 8.52997 4.72874 9.07254 4.81131 9.35562C4.94105 9.75665 4.98823 9.81562 5.059 9.65049C5.21233 9.29664 4.89387 8.51818 4.38669 7.96381C3.71438 7.24432 3.63181 7.31509 4.18617 8.14074Z" fill="#22EFFC"/>
<path d="M16.6179 7.56271C16.5826 7.62169 16.6061 7.68066 16.6651 7.68066C16.7359 7.68066 16.7949 7.62169 16.7949 7.56271C16.7949 7.49194 16.7713 7.44476 16.7477 7.44476C16.7123 7.44476 16.6533 7.49194 16.6179 7.56271Z" fill="#22EFFC"/>
<path d="M22.4209 7.52719C22.3738 7.56257 22.3384 7.65693 22.3384 7.7277C22.3384 7.79847 22.3974 7.78668 22.4799 7.70411C22.5507 7.63334 22.5861 7.53898 22.5625 7.5036C22.5271 7.46821 22.4563 7.48001 22.4209 7.52719Z" fill="#22EFFC"/>
<path d="M11.723 7.76321C11.723 7.88116 11.8056 8.09347 11.8999 8.22321C12.1476 8.58886 13.5158 11.3489 13.4687 11.3961C13.4451 11.4196 13.0322 10.6766 12.5486 9.74476C11.605 7.91655 11.5461 7.86937 10.862 8.17603C10.6143 8.29398 10.5553 8.38834 10.6143 8.56527C10.7204 8.93091 10.8148 10.9361 10.7322 11.2781C10.685 11.4432 10.5789 11.573 10.4963 11.573C10.402 11.573 10.3076 11.6084 10.284 11.6555C10.2722 11.7145 10.0481 11.9032 9.81221 12.0802C9.56452 12.2571 9.36401 12.493 9.36401 12.5873C9.36401 12.7053 9.29324 12.7407 9.1399 12.6935C8.82144 12.5991 8.77426 12.8822 8.77426 15.253C8.77426 17.0694 8.75067 17.3407 8.59733 17.2817C8.34964 17.1756 8.37323 17.3997 8.65631 17.6474C8.95118 17.9187 8.95118 18.2371 8.65631 18.532C8.52656 18.6617 8.42041 18.8151 8.42041 18.8859C8.42041 19.0982 8.63272 19.0038 8.88041 18.6971C9.10452 18.4141 9.12811 18.2135 9.1399 16.5976C9.1399 15.6186 9.18708 14.5807 9.23426 14.2858C9.30503 13.932 9.34042 14.5335 9.35221 16.1258C9.36401 18.3433 9.35221 18.5202 9.12811 18.8033C8.99836 18.9684 8.78605 19.1453 8.65631 19.1807C8.43221 19.2515 8.42041 19.3694 8.42041 21.7874V24.3115H8.89221C9.1517 24.3115 9.36401 24.3469 9.36401 24.4059C9.36401 24.4531 9.1517 24.4767 8.89221 24.4531C8.42041 24.4059 8.42041 24.4059 8.42041 24.8305C8.42041 25.2079 8.4558 25.2551 8.71528 25.2551C8.9158 25.2551 9.01016 25.1962 8.99836 25.0428C8.99836 24.9249 8.96298 24.9013 8.92759 24.9838C8.82144 25.2551 8.53836 25.149 8.53836 24.8423C8.53836 24.5946 8.59733 24.5474 8.904 24.5474C9.16349 24.5474 9.25785 24.5946 9.21067 24.7008C9.1517 24.8659 9.52914 25.1726 9.64709 25.0546C9.68247 25.0074 9.71786 24.8777 9.71786 24.7597C9.71786 24.6182 9.80042 24.5474 9.96555 24.5474C10.1307 24.5474 10.1897 24.6064 10.1543 24.7126C10.0835 24.9013 10.343 25.1844 10.4609 25.0546C10.5081 25.0192 10.5435 24.8305 10.5435 24.6418C10.5435 24.3233 10.5671 24.3115 11.0743 24.3115H11.605V23.5684C11.605 22.8608 11.5933 22.8372 11.2158 22.6602C11.0153 22.5659 10.7794 22.3536 10.6968 22.1884C10.5081 21.811 10.4727 13.873 10.6615 13.9909C10.7322 14.0381 10.7794 15.5007 10.7794 17.9894C10.7794 21.7874 10.7912 21.929 11.0271 22.2356C11.1568 22.4007 11.3456 22.5423 11.4399 22.5423C11.6758 22.5423 11.6404 22.3654 11.3809 22.1766C10.9917 21.8936 10.9799 21.5515 11.3338 21.1151C11.6522 20.7495 11.6522 20.7377 11.3927 20.7966L11.1332 20.8674L11.1568 15.7248L11.1922 10.5704L11.5697 10.535C12.0179 10.4878 12.183 10.1104 11.9589 9.68579C11.8881 9.54425 11.8409 9.40271 11.8763 9.37912C11.8999 9.35553 12.2774 10.0278 12.702 10.8889C13.4333 12.3632 13.4804 12.434 13.4922 11.9858C13.4922 11.6438 13.5276 11.5612 13.6102 11.6909C13.681 11.8089 13.7517 11.8325 13.8343 11.7499C13.9758 11.6084 13.221 9.86271 12.4543 8.54168C11.9235 7.63347 11.723 7.42116 11.723 7.76321ZM11.5815 8.68322C11.5461 8.7186 11.4753 8.65963 11.4399 8.54168C11.3691 8.37655 11.3809 8.36475 11.4989 8.47091C11.5815 8.55347 11.6168 8.64783 11.5815 8.68322ZM11.8174 9.15502C11.782 9.1904 11.7112 9.13143 11.6758 9.01348C11.605 8.84835 11.6168 8.83655 11.7348 8.94271C11.8174 9.02527 11.8527 9.11963 11.8174 9.15502ZM10.3666 24.1346C10.3666 24.3115 10.2722 24.3823 10.0245 24.4059C9.63529 24.4531 9.42298 24.2879 9.52914 24.0167C9.63529 23.7218 10.3666 23.8279 10.3666 24.1346ZM9.59991 24.7951C9.59991 24.9249 9.55273 24.9956 9.48196 24.9603C9.42298 24.9249 9.36401 24.8069 9.36401 24.7126C9.36401 24.6182 9.42298 24.5474 9.48196 24.5474C9.55273 24.5474 9.59991 24.6536 9.59991 24.7951ZM10.3902 24.9249C10.3548 25.0074 10.3312 24.9485 10.3312 24.7833C10.3312 24.6182 10.3548 24.5592 10.3902 24.63C10.4138 24.7126 10.4138 24.8541 10.3902 24.9249Z" fill="#22EFFC"/>
<path d="M9.65884 24.0757C9.56448 24.229 9.89474 24.3587 10.1424 24.2644C10.3783 24.17 10.2486 23.9577 9.95371 23.9577C9.83576 23.9577 9.69422 24.0167 9.65884 24.0757Z" fill="#22EFFC"/>
<path d="M27.5046 7.64539C27.5754 7.66898 27.7169 7.66898 27.7995 7.64539C27.8702 7.61001 27.8112 7.58642 27.6461 7.58642C27.481 7.58642 27.422 7.61001 27.5046 7.64539Z" fill="#22EFFC"/>
<path d="M0.057768 7.99929C0.116743 8.15262 0.163923 9.10801 0.163923 10.1106C0.163923 11.3137 0.199307 11.9152 0.281872 11.868C0.352642 11.8208 0.399822 11.0306 0.388027 9.80391C0.388027 7.9757 0.364437 7.82236 0.163923 7.76339C-0.0247967 7.71621 -0.0365916 7.75159 0.057768 7.99929Z" fill="#22EFFC"/>
<path d="M17.7148 7.76331C17.7856 7.7869 17.9271 7.7869 18.0097 7.76331C18.0804 7.72793 18.0215 7.70434 17.8563 7.70434C17.6912 7.70434 17.6322 7.72793 17.7148 7.76331Z" fill="#22EFFC"/>
<path d="M21.6424 7.88106C21.7249 7.99901 21.8193 8.11696 21.8311 8.14055C21.8547 8.16414 21.8665 8.10517 21.8665 8.01081C21.8665 7.90465 21.7839 7.7867 21.6778 7.75132C21.5008 7.68055 21.5008 7.70414 21.6424 7.88106Z" fill="#22EFFC"/>
<path d="M22.7634 7.77497C22.6218 7.90472 22.6926 9.1078 22.8577 9.50883C23.1644 10.2283 23.8013 9.89807 23.5183 9.15498C23.4239 8.89549 23.4475 8.77754 23.648 8.49447C23.8721 8.16421 23.8721 8.15241 23.6716 8.08164C23.5537 8.04626 23.3178 7.9519 23.1408 7.85754C22.9757 7.77497 22.7988 7.72779 22.7634 7.77497Z" fill="#22EFFC"/>
<path d="M3.41935 8.28237C3.96192 8.87212 4.09167 9.19058 4.09167 9.95725C4.09167 10.6414 4.09167 10.6414 4.2568 10.2639C4.61064 9.42648 4.32757 8.57724 3.5491 8.15262L3.05371 7.88134L3.41935 8.28237Z" fill="#22EFFC"/>
<path d="M16.2994 8.86007C15.804 9.75649 15.7804 9.85085 15.863 10.4288C15.9101 10.7709 15.9573 13.2596 15.9573 15.9724C15.9691 20.8555 15.9691 20.9027 15.7332 20.8319C15.6035 20.7966 15.4973 20.7848 15.4973 20.8202C15.4973 20.8555 15.6035 20.9971 15.7332 21.1268C16.0399 21.4335 16.0281 21.8109 15.7096 22.153C15.4383 22.4479 15.4619 22.5894 15.7804 22.4714C16.2876 22.2827 16.323 21.9289 16.3348 17.6237C16.3466 15.1822 16.3937 13.7786 16.4409 14.1678C16.5942 15.2647 16.5589 21.5986 16.4055 22.0586C16.3112 22.3181 16.1342 22.5304 15.8865 22.6484L15.4973 22.8371V24.1817C15.4973 25.373 15.5209 25.5027 15.6742 25.373C15.8158 25.2551 15.8983 25.2551 15.9927 25.3494C16.1932 25.5499 16.3583 25.5263 16.2876 25.3258C16.2168 25.1489 16.4645 24.8658 16.6296 24.9248C16.783 24.972 16.8183 24.8658 16.7358 24.6299C16.6414 24.4058 16.8537 24.0756 17.0896 24.0756C17.2901 24.0756 17.5378 24.394 17.4671 24.5709C17.3845 24.7833 17.4317 24.9602 17.5496 24.9248C17.7148 24.8658 17.9625 25.1489 17.8917 25.3258C17.8209 25.5263 17.986 25.5499 18.1866 25.3494C18.2809 25.2551 18.3635 25.2551 18.505 25.373C18.6584 25.5027 18.682 25.1961 18.682 22.3889V19.2632L18.3399 19.1217C17.7266 18.874 17.6204 18.4376 17.6322 16.2083C17.644 15.1232 17.6912 14.0616 17.7384 13.8729C17.7855 13.6724 17.8327 14.5216 17.8445 15.8545C17.8563 18.2842 17.9389 18.756 18.3989 18.933C18.7173 19.0509 18.7409 18.9094 18.4696 18.6145C18.1394 18.2724 18.1276 17.7535 18.4461 17.5647C18.5758 17.4822 18.682 17.3642 18.682 17.3053C18.682 17.2581 18.5758 17.2345 18.4461 17.2699C18.2102 17.3288 18.2102 17.2699 18.2102 14.8519C18.2102 12.4457 18.1984 12.375 17.9743 12.4339C17.7973 12.4811 17.6912 12.3632 17.4435 11.915C17.1958 11.4314 17.1486 11.1837 17.1486 10.3108C17.1486 9.46161 17.2076 9.15494 17.4317 8.65956C17.585 8.3293 17.6912 8.02263 17.644 7.98724C17.6086 7.95186 17.4081 7.91647 17.1958 7.91647C16.8419 7.91647 16.783 7.97545 16.2994 8.86007ZM17.2666 23.7689C17.2666 23.8986 17.0425 23.9458 16.9717 23.8397C16.9363 23.7807 16.9835 23.7217 17.0778 23.7217C17.184 23.7217 17.2666 23.7453 17.2666 23.7689Z" fill="#22EFFC"/>
<path d="M6.3207 8.35312C6.19096 8.76594 6.24993 10.2049 6.41506 10.5116C6.53301 10.7357 7.37045 11.3372 7.54738 11.3372C7.59456 11.3372 7.59456 10.9362 7.55917 10.4408C7.45302 9.30851 7.55917 8.6244 7.81866 8.6244C7.92481 8.6244 8.1843 8.73056 8.39661 8.8603L8.77405 9.0962V10.2639C8.77405 11.4316 8.892 11.7855 9.1161 11.349C9.18687 11.2193 9.32841 11.0424 9.42277 10.9362C9.67047 10.6885 9.77662 9.69774 9.61149 9.19056C9.54072 8.96646 9.32841 8.70697 9.13969 8.58902C8.69149 8.32953 7.53558 8.03466 6.93404 8.03466C6.49763 8.03466 6.42686 8.07004 6.3207 8.35312Z" fill="#22EFFC"/>
<path d="M9.85928 8.22354C9.96544 8.34149 10.166 8.76611 10.2957 9.15534L10.5316 9.86304L10.5434 9.33226C10.5434 8.75431 10.3311 8.35328 9.91826 8.14097C9.67056 8.01123 9.67056 8.01123 9.85928 8.22354Z" fill="#22EFFC"/>
<path d="M25.4638 8.50645C25.4284 8.56543 25.5818 8.71876 25.8177 8.82492C26.1833 9.00184 26.2541 9.00184 26.3484 8.8603C26.4074 8.75415 26.4074 8.6362 26.3248 8.54184C26.1833 8.36491 25.57 8.34132 25.4638 8.50645Z" fill="#22EFFC"/>
<path d="M9.43476 8.60065C9.70604 8.77757 9.87117 9.28476 9.87117 10.016L9.88297 10.7827L10.0481 10.3227C10.3194 9.53245 10.0481 8.50629 9.5645 8.50629C9.41117 8.50629 9.36399 8.54167 9.43476 8.60065Z" fill="#22EFFC"/>
<path d="M24.4614 8.77781C24.4614 9.06089 24.6384 9.20243 25.0866 9.29679C25.6409 9.40294 26.4784 9.86295 26.8912 10.2876C27.3276 10.7476 27.3394 10.7594 27.0209 10.6414C26.5491 10.4645 26.5137 10.4763 26.7614 10.7476C26.8912 10.8891 26.9973 11.0778 27.0091 11.1722C27.0563 11.5024 27.1625 11.4907 27.2922 11.1604C27.3866 10.9009 27.4573 10.8655 27.5517 10.9599C27.7168 11.125 27.9999 11.1486 27.9999 11.0071C27.9999 10.7476 26.9384 9.89833 26.1245 9.5091C25.6291 9.2732 25.0512 8.94294 24.8507 8.78961L24.4614 8.49473V8.77781Z" fill="#22EFFC"/>
<path d="M23.9306 8.76606C23.848 8.96657 24.0604 9.56812 24.2019 9.56812C24.3434 9.56812 24.2609 8.84862 24.1075 8.69529C24.0368 8.62452 23.9778 8.64811 23.9306 8.76606Z" fill="#22EFFC"/>
<path d="M21.7606 10.0161C21.7488 10.8771 21.796 11.3253 21.8667 11.2781C22.0083 11.1956 22.0083 9.24938 21.8667 8.91912C21.796 8.76579 21.7606 9.16682 21.7606 10.0161Z" fill="#22EFFC"/>
<path d="M5.2356 10.488C5.2356 11.3254 5.38893 11.6911 5.83714 11.9388C6.07304 12.0567 6.07304 12.0567 5.83714 11.7265C5.64842 11.4788 5.55406 11.1367 5.50688 10.5352C5.47149 10.0634 5.38893 9.68592 5.34175 9.68592C5.28278 9.68592 5.2356 10.0398 5.2356 10.488Z" fill="#22EFFC"/>
<path d="M17.3489 9.75672C17.2309 9.88646 17.2427 10.7357 17.3961 11.2429C17.4786 11.5613 17.6202 11.7501 17.8914 11.8798L18.2689 12.0803L18.033 11.8208C17.9032 11.6675 17.7263 11.1721 17.6202 10.6177C17.5258 10.0988 17.3961 9.70954 17.3489 9.75672Z" fill="#22EFFC"/>
<path d="M5.71955 10.5232C5.70776 11.0185 5.75494 11.1129 6.17956 11.5021C6.43905 11.738 6.68674 11.9268 6.74571 11.9268C6.79289 11.9268 6.72213 11.8442 6.60418 11.7498C6.3093 11.5257 6.49802 11.5257 7.07597 11.7498C7.58316 11.9503 7.59495 11.9621 6.52161 11.2073C6.13238 10.936 5.94366 10.7001 5.86109 10.4052L5.74314 9.98059L5.71955 10.5232Z" fill="#22EFFC"/>
<path d="M17.8563 10.2754C17.7855 11.0893 17.9978 11.3841 18.9296 11.7026C19.8142 12.0211 19.8968 11.9739 19.2127 11.5729C18.3517 11.0657 18.0686 10.7944 17.9742 10.358C17.8917 10.0159 17.8799 10.0159 17.8563 10.2754Z" fill="#22EFFC"/>
<path d="M12.4069 10.8184C12.3716 10.8537 12.3598 13.142 12.4069 15.902L12.4659 20.9148L12.2182 20.8323C11.8998 20.7379 11.888 20.8912 12.1946 21.1625C12.5013 21.422 12.4895 21.7287 12.1828 22.1179C11.9234 22.4482 11.9352 22.5897 12.2064 22.4836C12.69 22.2948 12.7254 22.0354 12.7844 18.0015L12.8552 14.1091L12.8787 18.084L12.9023 22.0471L12.5957 22.4128C12.4305 22.6133 12.2182 22.7784 12.1239 22.7784C11.9823 22.7784 11.9587 23.2031 11.9587 25.5031C11.9705 28.1451 11.9823 28.2159 12.1946 28.0272C12.3952 27.8503 12.4187 27.8503 12.5249 28.0508C12.5957 28.1687 12.6782 28.2513 12.7136 28.2277C12.9259 28.1451 13.0321 28.2277 12.9613 28.4518C12.8905 28.6641 12.9023 28.6759 13.1146 28.5698C13.2562 28.499 13.3505 28.3339 13.3387 28.2159C13.3387 28.0862 13.2798 28.0154 13.2326 28.039C13.0911 28.1216 13.1146 28.0154 13.3152 27.5318C13.4803 27.1308 13.61 27.0836 13.6926 27.4139C13.7044 27.4964 13.7516 27.6969 13.7988 27.8857C13.8459 28.0744 13.8223 28.2041 13.7516 28.2041C13.6808 28.2041 13.6572 28.2985 13.6926 28.4164C13.7398 28.6169 14.1998 28.7231 14.1998 28.5344C14.1998 28.4872 14.1408 28.44 14.07 28.44C13.9757 28.44 13.9757 28.381 14.0818 28.2631C14.1644 28.1687 14.2941 28.0862 14.3767 28.0862C14.4711 28.0862 14.5654 28.0154 14.589 27.9328C14.6362 27.8267 14.6834 27.8267 14.7659 27.9564C15.0726 28.3928 15.1434 27.9092 15.1434 25.3733V22.802L14.8485 22.7313C14.6834 22.6841 14.4475 22.4836 14.3177 22.2713C14.0936 21.9174 14.0818 21.6579 14.0818 18.1548C14.0818 15.7958 14.129 14.3922 14.1998 14.345C14.2823 14.2979 14.3177 15.5717 14.3177 18.0958C14.3177 21.7877 14.3295 21.9292 14.5654 22.2359C14.6952 22.401 14.8839 22.5425 14.9782 22.5425C15.2141 22.5425 15.1906 22.3892 14.9075 22.1533C14.7659 22.0354 14.6716 21.8112 14.6716 21.5989C14.6716 21.3748 14.7541 21.1979 14.9075 21.1036C15.0372 21.021 15.1434 20.903 15.1434 20.8559C15.1434 20.7969 15.0372 20.7969 14.9075 20.8323C14.6716 20.903 14.6716 20.8559 14.6716 16.1615C14.6716 11.9625 14.648 11.4317 14.4947 11.644C14.4003 11.7619 14.3177 11.9861 14.3177 12.1276C14.3177 12.2691 14.2706 12.4225 14.1998 12.4579C14.1408 12.4932 14.0818 12.4696 14.0818 12.3871C14.0818 12.3045 13.9049 12.3989 13.6926 12.6112C13.3034 12.9886 12.9849 13.142 13.2444 12.8235C13.3859 12.6466 13.1854 12.104 12.9613 12.0804C12.9023 12.0686 12.7844 11.7855 12.7018 11.4553C12.5603 10.8184 12.5131 10.7004 12.4069 10.8184Z" fill="#22EFFC"/>
<path d="M25.4641 11.1013C25.4995 11.1603 25.5939 11.2192 25.6529 11.2192C25.7236 11.2192 25.7354 11.1603 25.7 11.1013C25.6647 11.0305 25.5703 10.9833 25.5113 10.9833C25.4406 10.9833 25.4288 11.0305 25.4641 11.1013Z" fill="#22EFFC"/>
<path d="M4.84624 11.7739C4.79906 11.8093 4.76367 14.0031 4.76367 16.6216C4.76367 21.2452 4.77547 21.3986 4.97598 21.2098C5.09393 21.0919 5.36521 21.0093 5.57752 21.0093C5.94317 21.0093 5.94317 21.0093 5.75445 20.7145C5.64829 20.5493 5.61291 20.4196 5.66009 20.4196C5.71906 20.4196 5.83701 20.5257 5.91958 20.6555C6.12009 20.9857 6.69804 20.9739 6.93394 20.6319C7.0401 20.4903 7.12266 20.4196 7.12266 20.4903C7.12266 20.5611 6.99292 20.7616 6.82779 20.9386C6.52112 21.2688 6.45035 21.4339 6.66266 21.2924C6.75702 21.2452 6.76881 21.2924 6.70984 21.4693C6.59189 21.8704 6.74522 22.1888 7.07548 22.1888C7.40574 22.1888 7.58267 21.8939 7.37036 21.6816C7.2642 21.5755 7.24061 21.5873 7.31138 21.7642C7.38215 21.9411 7.35856 21.9647 7.24061 21.8939C7.13446 21.835 7.11087 21.8468 7.16984 21.9293C7.21702 22.0119 7.18164 22.0709 7.08728 22.0709C6.87497 22.0709 6.75702 21.8114 6.88676 21.6109C7.01651 21.3986 7.52369 21.5047 7.57087 21.7524C7.59446 21.8704 7.52369 22.0709 7.40574 22.2006C7.13446 22.5073 7.40574 22.4955 7.71241 22.1888C7.99549 21.9057 8.00728 21.7406 7.75959 21.375C7.59446 21.1509 7.48831 21.1155 7.15805 21.1627C6.92215 21.2098 6.7924 21.1862 6.82779 21.1155C6.93394 20.9504 7.5119 20.9857 7.77138 21.1745C8.00728 21.3278 8.00728 21.316 7.9719 20.2898C7.93651 19.3934 7.90113 19.2401 7.71241 19.1811C7.58267 19.1457 7.37036 18.9688 7.24061 18.8037C7.01651 18.5206 7.00471 18.3437 7.01651 16.3031C7.0283 14.7816 7.06369 14.2862 7.12266 14.699C7.18164 15.0175 7.22882 15.9847 7.22882 16.8339C7.24061 18.2139 7.2642 18.4144 7.48831 18.6975C7.736 19.0042 7.94831 19.0985 7.94831 18.8862C7.94831 18.8155 7.84215 18.6621 7.71241 18.5324C7.39395 18.2139 7.41754 17.9662 7.80677 17.5534C8.11344 17.2113 8.11344 17.1996 7.86574 17.2703L7.59446 17.3293V15.2534C7.59446 13.1893 7.5001 12.6113 7.24061 12.9888C7.13446 13.1421 7.09907 13.1421 6.96933 12.9888C6.89856 12.8944 6.54471 12.6821 6.20266 12.517C5.84881 12.3636 5.47137 12.1041 5.35342 11.9626C5.14111 11.6913 4.98778 11.6323 4.84624 11.7739Z" fill="#22EFFC"/>
<path d="M24.3435 12.0449C24.3435 12.1039 24.4025 12.1628 24.4733 12.1628C24.5322 12.1628 24.5558 12.1039 24.5204 12.0449C24.485 11.9741 24.4261 11.9269 24.3907 11.9269C24.3671 11.9269 24.3435 11.9741 24.3435 12.0449Z" fill="#22EFFC"/>
<path d="M21.8669 12.4458C21.8669 12.717 21.3126 12.9883 20.7582 12.9883C20.3808 12.9883 20.192 13.0473 20.1095 13.1888C20.0151 13.3776 19.9797 13.3658 19.7556 13.1063L19.5197 12.8114L19.5079 15.076C19.5079 17.2699 19.4961 17.3289 19.272 17.2699C19.1423 17.2345 19.0361 17.2581 19.0361 17.3053C19.0361 17.3643 19.1423 17.4822 19.272 17.5648C19.5905 17.7535 19.5787 18.2725 19.2484 18.6145C18.9772 18.9094 19.0007 19.0509 19.3192 18.933C19.7674 18.7679 19.8618 18.2725 19.8618 16.2084C19.8618 14.8873 19.909 14.2858 19.9797 14.4037C20.0387 14.4981 20.0977 15.3945 20.0977 16.3853C20.0977 18.4494 19.9915 18.874 19.4018 19.1099L19.0361 19.2632V20.2422C19.0361 21.1622 19.0479 21.2212 19.3074 21.2802C19.449 21.3038 19.6495 21.3627 19.7438 21.4099C19.9915 21.5161 19.9915 21.0089 19.7438 20.714C19.5787 20.5135 19.5787 20.5135 19.8382 20.6433C19.9797 20.714 20.1684 20.8792 20.2392 20.9971C20.3572 21.1858 20.4043 21.1976 20.5341 21.0679C20.6167 20.9735 20.6874 20.7966 20.6874 20.655C20.6874 20.5135 20.7464 20.4427 20.8054 20.4781C20.8761 20.5135 20.9233 20.7022 20.9233 20.8909C20.9233 21.1976 20.9469 21.2212 21.1828 21.1386C21.3361 21.0915 21.4895 20.9145 21.5249 20.7612C21.5956 20.5017 21.7018 20.6786 21.631 20.9499C21.6192 21.0089 21.5956 21.1386 21.5956 21.2094C21.5956 21.292 21.5485 21.3627 21.4895 21.3627C21.4423 21.3627 21.3951 21.4099 21.3951 21.4571C21.3951 21.5043 21.572 21.5515 21.7844 21.5397H22.1618L22.1972 16.9868C22.2208 13.0001 22.1972 12.4104 22.0438 12.3514C21.9377 12.316 21.8669 12.3514 21.8669 12.4458Z" fill="#22EFFC"/>
<path d="M23.7298 12.3634C23.8124 12.3988 23.9185 12.387 23.9539 12.3516C24.0011 12.3162 23.9303 12.2808 23.8006 12.2926C23.6709 12.2926 23.6355 12.328 23.7298 12.3634Z" fill="#22EFFC"/>
<path d="M6.03772 21.1506C6.26182 21.3747 6.20285 21.5398 5.96695 21.3275C5.49515 20.9029 4.77566 21.2921 4.92899 21.8937C5.02335 22.2829 5.50695 22.5188 5.76644 22.3065C5.95515 22.1532 6.00233 21.7639 5.849 21.6696C5.79003 21.6342 5.75464 21.7285 5.75464 21.8701C5.76644 22.0588 5.69567 22.1296 5.53054 22.1296C5.23566 22.1296 5.20028 21.6224 5.49515 21.4455C5.64849 21.3393 5.74285 21.3629 5.91977 21.528C6.09669 21.6814 6.16746 21.6932 6.21464 21.5752C6.25003 21.4808 6.28541 21.5162 6.29721 21.6578C6.29721 21.7875 6.37977 21.9998 6.47413 22.1178C6.56849 22.2357 6.61567 22.3773 6.59208 22.4244C6.53311 22.5306 6.88696 22.6957 6.96952 22.6132C7.00491 22.5896 6.91055 22.448 6.7808 22.3183C6.63926 22.1767 6.53311 21.9408 6.53311 21.7757C6.53311 21.6106 6.48593 21.4808 6.42695 21.4808C6.36798 21.4808 6.27362 21.3747 6.23823 21.2449C6.20285 21.1152 6.10849 21.009 6.02592 21.009C5.93156 21.009 5.93156 21.0444 6.03772 21.1506Z" fill="#22EFFC"/>
<path d="M20.0977 21.4336C20.0977 21.6459 20.1684 21.6813 20.593 21.6695C21.0295 21.6577 21.112 21.7049 21.2536 21.9761C21.3361 22.1649 21.4895 22.3064 21.5956 22.3064C21.7607 22.3064 21.7607 22.2828 21.5602 22.1295C21.3715 21.9761 21.3597 21.9408 21.5131 21.8346C21.6546 21.7402 21.6428 21.7166 21.4423 21.7166C21.112 21.7166 21.0177 21.5987 21.1946 21.3864C21.3243 21.2331 21.3007 21.2213 21.053 21.3746C20.8289 21.5043 20.7582 21.5043 20.7228 21.3864C20.6756 21.2684 20.6284 21.2684 20.4869 21.3746C20.3454 21.4925 20.2982 21.4925 20.2038 21.351C20.1212 21.2213 20.0977 21.2331 20.0977 21.4336Z" fill="#22EFFC"/>
<path d="M19.0361 21.646C19.0361 21.9409 19.2602 22.106 19.4725 21.9762C19.6495 21.8583 19.4372 21.3629 19.2131 21.3629C19.1069 21.3629 19.0361 21.4691 19.0361 21.646Z" fill="#22EFFC"/>
<path d="M19.8024 21.9409C19.8495 22.0943 19.8141 22.1768 19.6844 22.2122C19.5311 22.2358 19.5311 22.2712 19.7316 22.3891C19.9321 22.5189 19.9557 22.4953 20.0029 22.1886C20.0383 21.9645 19.9911 21.823 19.8967 21.7758C19.7788 21.7404 19.7434 21.7876 19.8024 21.9409Z" fill="#22EFFC"/>
<path d="M21.8195 21.8936C21.6189 22.0469 21.6071 22.0705 21.7841 22.0705C21.8902 22.0705 21.9846 22.1177 21.9846 22.1884C21.9846 22.2474 22.0436 22.3064 22.1025 22.3064C22.1733 22.3064 22.2205 22.1767 22.2205 22.0115C22.2205 21.6695 22.1379 21.6577 21.8195 21.8936Z" fill="#22EFFC"/>
<path d="M4.76367 22.2949C4.76367 22.3538 4.89342 22.4836 5.05855 22.5897C5.24727 22.7195 5.32983 22.7313 5.29444 22.6251C5.21188 22.4364 4.76367 22.1533 4.76367 22.2949Z" fill="#22EFFC"/>
<path d="M7.68922 22.389C7.33537 22.8136 7.33537 22.9198 7.70102 22.6485C8.05487 22.389 8.17282 22.1885 7.9723 22.1885C7.91333 22.1885 7.78358 22.2829 7.68922 22.389Z" fill="#22EFFC"/>
<path d="M19.0361 22.5541C19.0361 22.9079 19.0951 22.9197 19.4843 22.6249C19.5905 22.5305 19.5787 22.4715 19.4254 22.3536C19.1069 22.1177 19.0361 22.1531 19.0361 22.5541Z" fill="#22EFFC"/>
<path d="M5.8962 22.4952C5.6721 22.7075 5.64851 22.8609 5.86082 22.6957C5.93159 22.625 6.08492 22.5542 6.17928 22.5188C6.28544 22.4834 6.29723 22.4362 6.21467 22.3891C6.1439 22.3419 5.99056 22.3891 5.8962 22.4952Z" fill="#22EFFC"/>
<path d="M21.1946 22.6483C21.0059 22.9432 20.6403 23.014 20.2628 22.8252C20.0977 22.7309 19.8972 22.6601 19.8146 22.6719C19.7439 22.6719 19.8028 22.7191 19.9562 22.7899C20.1095 22.8488 20.1921 22.9432 20.1567 23.014C20.1095 23.0847 20.1921 23.1201 20.3572 23.0965C20.5341 23.0847 20.6167 23.1319 20.5931 23.2263C20.5813 23.3206 20.6167 23.356 20.6875 23.3088C20.7464 23.2734 20.8054 23.3088 20.8054 23.415C20.8054 23.5093 20.7464 23.6037 20.6757 23.6273C20.5931 23.6509 20.5695 23.7806 20.6285 23.9458L20.711 24.217L20.9469 23.9811C21.171 23.757 21.171 23.7217 20.9941 23.474C20.7582 23.1319 20.7464 22.9668 20.9705 23.0493C21.0767 23.0965 21.1592 23.014 21.2064 22.8724C21.2536 22.6483 21.289 22.6365 21.4659 22.7899C21.6546 22.9432 21.6546 22.9314 21.5249 22.6837C21.3598 22.3652 21.3716 22.3652 21.1946 22.6483Z" fill="#22EFFC"/>
<path d="M21.7252 22.625C21.796 22.6486 21.8668 22.7901 21.8668 22.9199C21.8668 23.1204 21.9022 23.1322 22.0437 23.0142C22.3268 22.7783 22.256 22.5424 21.9022 22.5542C21.7134 22.5542 21.6427 22.5896 21.7252 22.625Z" fill="#22EFFC"/>
<path d="M4.76367 22.7549C4.76367 22.8965 5.22368 23.2975 5.29444 23.2385C5.36521 23.1559 5.01137 22.6606 4.86983 22.6606C4.81085 22.6606 4.76367 22.7077 4.76367 22.7549Z" fill="#22EFFC"/>
<path d="M6.25046 22.7429C6.20328 22.8019 6.09712 22.8373 6.02636 22.8373C5.83764 22.8373 5.77866 23.4624 5.95559 23.6747C6.12071 23.8752 6.66328 23.8988 6.8638 23.6983C7.18226 23.3798 6.95816 22.6603 6.53354 22.6603C6.42738 22.6603 6.29764 22.6957 6.25046 22.7429ZM6.22687 23.368C6.25046 23.368 6.26225 23.2737 6.25046 23.1675C6.23866 22.8962 6.6279 22.8255 6.72226 23.0732C6.76944 23.1793 6.72226 23.3444 6.6279 23.4506C6.3802 23.6865 5.94379 23.4624 5.95559 23.0967V22.8373L6.06174 23.0967C6.12071 23.2501 6.19148 23.368 6.22687 23.368Z" fill="#22EFFC"/>
<path d="M7.74829 22.8019C7.46521 23.1794 7.44162 23.2737 7.68931 23.144C7.937 23.0142 8.13752 22.6604 7.96059 22.6604C7.90162 22.6604 7.80726 22.7312 7.74829 22.8019Z" fill="#22EFFC"/>
<path d="M19.272 23.0142C19.272 23.0614 19.3545 23.1676 19.4607 23.2619C19.614 23.3799 19.6612 23.3799 19.7556 23.2384C19.9089 22.9907 19.8853 22.9553 19.5668 22.9435C19.4017 22.9317 19.272 22.9671 19.272 23.0142Z" fill="#22EFFC"/>
<path d="M21.336 23.1323C21.3713 23.1913 21.4303 23.2502 21.4657 23.2502C21.4893 23.2502 21.5129 23.1913 21.5129 23.1323C21.5129 23.0615 21.4539 23.0143 21.3831 23.0143C21.3242 23.0143 21.3006 23.0615 21.336 23.1323Z" fill="#22EFFC"/>
<path d="M5.47144 23.2971C5.47144 23.3914 5.51862 23.4976 5.57759 23.533C5.63656 23.5802 5.66015 23.4976 5.62477 23.3678C5.554 23.0966 5.47144 23.0612 5.47144 23.2971Z" fill="#22EFFC"/>
<path d="M7.20567 23.3563C7.15849 23.5568 7.17028 23.604 7.26464 23.5096C7.32362 23.4507 7.359 23.3209 7.33541 23.2384C7.30003 23.144 7.25285 23.203 7.20567 23.3563Z" fill="#22EFFC"/>
<path d="M21.4657 23.3206C21.3359 23.4031 21.277 23.5211 21.3124 23.5683C21.3595 23.6155 21.4893 23.5565 21.5954 23.4503C21.8549 23.2026 21.7606 23.0965 21.4657 23.3206Z" fill="#22EFFC"/>
<path d="M20.2153 23.3798C20.2153 23.4388 20.1682 23.4741 20.1092 23.427C19.8615 23.2854 19.8851 23.5921 20.1446 23.828L20.4158 24.0757L20.4041 23.6629C20.3923 23.4388 20.3569 23.25 20.3097 23.25C20.2507 23.25 20.2153 23.309 20.2153 23.3798Z" fill="#22EFFC"/>
<path d="M16.9364 24.4414C16.96 24.5121 17.0308 24.5593 17.0898 24.5593C17.1487 24.5593 17.2195 24.5121 17.2431 24.4414C17.2667 24.3706 17.1959 24.3116 17.0898 24.3116C16.9836 24.3116 16.9128 24.3706 16.9364 24.4414Z" fill="#22EFFC"/>
<path d="M10.6614 24.524C10.6614 24.583 10.8265 24.6066 11.0152 24.5712C11.3337 24.524 11.3691 24.5594 11.3691 24.8189C11.3691 25.0076 11.2865 25.1374 11.1686 25.1727C11.0034 25.2199 11.027 25.2317 11.2275 25.2435C11.4516 25.2553 11.487 25.1963 11.487 24.8425C11.487 24.4532 11.4634 24.4297 11.0742 24.4297C10.8501 24.4297 10.6614 24.4768 10.6614 24.524Z" fill="#22EFFC"/>
<path d="M8.65601 24.866C8.65601 24.984 8.70319 25.0312 8.75037 24.9604C8.79755 24.8896 8.88011 24.8071 8.93908 24.7481C8.99806 24.7009 8.96267 24.6655 8.85652 24.6655C8.73857 24.6655 8.65601 24.7599 8.65601 24.866Z" fill="#22EFFC"/>
<path d="M10.9093 24.8659C10.9093 25.0193 10.9329 25.0311 10.9801 24.9131C11.0391 24.7834 11.0627 24.7834 11.1452 24.9131C11.2278 25.0429 11.2514 25.0311 11.2514 24.8659C11.2514 24.7598 11.1688 24.6654 11.0745 24.6654C10.9801 24.6654 10.8975 24.7598 10.9093 24.8659Z" fill="#22EFFC"/>
<path d="M9.83594 25.1372C9.83594 25.1962 9.89491 25.2551 9.95389 25.2551C10.0247 25.2551 10.0718 25.1962 10.0718 25.1372C10.0718 25.0664 10.0247 25.0192 9.95389 25.0192C9.89491 25.0192 9.83594 25.0664 9.83594 25.1372Z" fill="#22EFFC"/>
<path d="M8.42041 25.904C8.42041 26.4112 8.43221 26.423 8.70349 26.3169C8.89221 26.2461 9.01016 26.2579 9.05734 26.3286C9.08093 26.3876 9.09272 26.3758 9.08093 26.2933C9.05734 26.2107 8.9158 26.1517 8.76246 26.1635C8.58554 26.1753 8.56195 26.1635 8.69169 26.1281C8.79785 26.0927 8.89221 26.022 8.89221 25.963C8.89221 25.904 8.80964 25.8804 8.71528 25.9158C8.59733 25.963 8.53836 25.9158 8.53836 25.7389C8.53836 25.562 8.60913 25.4912 8.80964 25.4912C9.02195 25.4912 9.03375 25.5148 8.89221 25.621C8.75067 25.7271 8.75067 25.7389 8.88041 25.7035C9.22247 25.6092 9.1517 25.3733 8.78605 25.3733C8.43221 25.3733 8.42041 25.3851 8.42041 25.904Z" fill="#22EFFC"/>
<path d="M10.803 25.5146C10.8266 25.5854 10.9327 25.668 11.0271 25.7033C11.1568 25.7387 11.1568 25.7269 11.0153 25.6208C10.8738 25.5146 10.8856 25.491 11.1097 25.491C11.4281 25.491 11.4871 25.9628 11.1686 25.9746C10.9799 25.9746 10.9917 25.9982 11.1922 26.0926C11.4045 26.1869 11.4045 26.1869 11.1451 26.1633C10.9917 26.1516 10.8384 26.1869 10.8148 26.2577C10.803 26.3167 10.9563 26.3757 11.1686 26.3875C11.5343 26.3875 11.5461 26.3757 11.5461 25.8803C11.5579 25.3849 11.5461 25.3731 11.1568 25.3731C10.8974 25.3731 10.7794 25.4203 10.803 25.5146Z" fill="#22EFFC"/>
<path d="M16.9245 25.5383C16.7594 25.7388 16.842 25.9629 17.0897 25.9629C17.3492 25.9629 17.4317 25.727 17.243 25.5383C17.0897 25.3849 17.0543 25.3849 16.9245 25.5383Z" fill="#22EFFC"/>
<path d="M15.6862 25.5853C15.6508 25.6561 15.6744 25.7504 15.7452 25.7858C15.9221 25.9037 16.04 25.7504 15.8867 25.5971C15.8041 25.5145 15.7334 25.5145 15.6862 25.5853Z" fill="#22EFFC"/>
<path d="M18.281 25.5973C18.2338 25.6799 18.222 25.7743 18.2574 25.8096C18.3635 25.9158 18.4815 25.7625 18.4225 25.5973C18.3753 25.4676 18.3518 25.4676 18.281 25.5973Z" fill="#22EFFC"/>
<path d="M9.08084 25.8095C8.95109 25.9393 9.01007 26.0808 9.18699 26.0808C9.28135 26.0808 9.36392 26.0336 9.36392 25.9747C9.36392 25.8213 9.1752 25.7152 9.08084 25.8095Z" fill="#22EFFC"/>
<path d="M9.83594 25.9039C9.83594 25.9982 9.90671 26.0808 9.98927 26.0808C10.0836 26.0808 10.1544 25.9982 10.1544 25.9039C10.1544 25.8095 10.0836 25.727 9.98927 25.727C9.90671 25.727 9.83594 25.8095 9.83594 25.9039Z" fill="#22EFFC"/>
<path d="M10.6139 25.8214C10.5785 25.8921 10.6021 25.9865 10.6729 26.0219C10.8498 26.1398 10.9678 25.9865 10.8144 25.8332C10.7319 25.7506 10.6611 25.7506 10.6139 25.8214Z" fill="#22EFFC"/>
<path d="M17.7737 26.0572C17.9507 26.2577 17.9625 26.3049 17.8091 26.4229C17.7148 26.5054 17.5732 26.5408 17.5143 26.5054C17.3137 26.3757 17.2548 26.6352 17.4435 26.7885C17.6086 26.9182 17.6086 26.9654 17.4317 27.1541C17.1722 27.4372 17.0071 27.4372 16.7476 27.1541C16.5707 26.9654 16.5707 26.9182 16.7358 26.7885C16.9245 26.6352 16.8655 26.3757 16.665 26.5054C16.4999 26.6116 16.205 26.3285 16.2876 26.128C16.3583 25.9275 16.1932 25.9039 15.9927 26.1044C15.8983 26.1988 15.8158 26.1988 15.6742 26.0808C15.5209 25.9511 15.4973 25.9747 15.4973 26.2106C15.5091 26.5644 16.6768 27.5552 17.0896 27.5552C17.5025 27.5552 18.6702 26.5644 18.682 26.2106C18.682 25.9747 18.6584 25.9629 18.505 26.0808C18.3871 26.1752 18.2809 26.187 18.1866 26.1162C18.104 26.0454 17.9271 25.9629 17.8091 25.9157C17.585 25.8331 17.585 25.8449 17.7737 26.0572Z" fill="#22EFFC"/>
<path d="M8.85711 26.7888C8.97506 26.9185 9.1048 27.0247 9.15198 27.0247C9.19916 27.0247 9.15198 26.9185 9.04583 26.7888C8.92788 26.659 8.79813 26.5529 8.75095 26.5529C8.70377 26.5529 8.75095 26.659 8.85711 26.7888Z" fill="#22EFFC"/>
<path d="M9.83569 26.7177C9.83569 26.8356 9.75313 26.8592 9.5762 26.8238C9.25774 26.7413 9.30492 26.8121 9.70595 27.0244C9.88287 27.1187 9.95364 27.1187 9.90646 27.0362C9.85928 26.9654 9.88287 26.9064 9.94184 26.9064C10.0126 26.9064 10.0716 26.8238 10.0716 26.7295C10.0716 26.6351 10.0244 26.5526 9.95364 26.5526C9.89466 26.5526 9.83569 26.6233 9.83569 26.7177Z" fill="#22EFFC"/>
<path d="M11.1097 26.6351C11.1923 26.6705 11.2984 26.6587 11.3338 26.6233C11.381 26.5879 11.3102 26.5526 11.1805 26.5644C11.0507 26.5644 11.0153 26.5997 11.1097 26.6351Z" fill="#22EFFC"/>
<path d="M10.1897 26.9888C10.1897 27.1068 10.2369 27.154 10.2841 27.0832C10.3312 27.0124 10.4138 26.9299 10.4728 26.8709C10.5318 26.8237 10.4964 26.7883 10.3902 26.7883C10.2723 26.7883 10.1897 26.8827 10.1897 26.9888Z" fill="#22EFFC"/>
<path d="M16.9836 26.8947C16.9364 26.9536 16.96 27.0362 17.019 27.0716C17.078 27.1188 17.1605 27.0952 17.1959 27.0362C17.2431 26.9772 17.2195 26.8947 17.1605 26.8593C17.1015 26.8121 17.019 26.8357 16.9836 26.8947Z" fill="#22EFFC"/>
<path d="M10.1309 27.3785L9.7771 27.4728L10.0956 27.4846C10.2725 27.4846 10.4494 27.4374 10.4848 27.3785C10.5202 27.3077 10.5438 27.2723 10.5202 27.2723C10.4966 27.2841 10.3315 27.3313 10.1309 27.3785Z" fill="#22EFFC"/>
<path d="M9.93026 27.6967C10.0128 27.732 10.119 27.7202 10.1544 27.6849C10.2015 27.6495 10.1308 27.6141 10.001 27.6259C9.87129 27.6259 9.8359 27.6613 9.93026 27.6967Z" fill="#22EFFC"/>
<path d="M12.1945 29.2654C12.0884 29.3361 12.0766 29.3833 12.1592 29.3833C12.2299 29.3833 12.3361 29.3243 12.3715 29.2654C12.4658 29.1238 12.4187 29.1238 12.1945 29.2654Z" fill="#22EFFC"/>
<path d="M14.754 29.2773C14.8366 29.3599 14.9309 29.3953 14.9663 29.3599C15.0017 29.3245 14.9427 29.2537 14.8248 29.2183C14.6597 29.1476 14.6479 29.1594 14.754 29.2773Z" fill="#22EFFC"/>
<path d="M12.5014 29.5603C12.3716 29.6547 12.3008 29.7608 12.3362 29.7962C12.3598 29.8316 12.4896 29.749 12.6075 29.6193C12.8552 29.348 12.8198 29.3244 12.5014 29.5603Z" fill="#22EFFC"/>
<path d="M13.0557 29.4426C13.1736 29.5841 12.7962 29.9733 12.5367 29.9733C12.4187 29.9733 12.289 29.9144 12.2536 29.8554C12.1475 29.6903 11.9587 29.7139 11.9587 29.8908C11.9587 29.9851 12.2182 30.2682 12.5367 30.5395C13.0557 30.9759 13.1146 30.9995 13.1736 30.799C13.209 30.6693 13.1854 30.5867 13.1264 30.6339C13.0675 30.6693 13.0203 30.6339 13.0203 30.5749C13.0203 30.5041 13.0793 30.4451 13.1382 30.4451C13.3152 30.4451 13.2798 29.5251 13.1146 29.4308C13.0321 29.3836 12.9967 29.3954 13.0557 29.4426Z" fill="#22EFFC"/>
<path d="M13.8344 29.407C13.7636 29.7137 13.7872 30.445 13.8698 30.445C13.9405 30.445 13.9641 30.5747 13.9405 30.7399L13.8816 31.0229L14.1882 30.8106C14.7426 30.3978 15.179 29.8906 15.0257 29.7963C14.9549 29.7491 14.8252 29.7727 14.7544 29.8435C14.5657 30.0322 14.3887 30.0086 14.0939 29.7491C13.9052 29.584 13.8816 29.5014 13.9877 29.466C14.1057 29.4188 14.1057 29.3952 13.9995 29.3952C13.9169 29.3835 13.8462 29.3952 13.8344 29.407Z" fill="#22EFFC"/>
<path d="M14.3179 29.4781C14.3179 29.537 14.4004 29.655 14.4948 29.7376C14.5892 29.8201 14.6717 29.8319 14.6717 29.7611C14.6717 29.7022 14.5892 29.5842 14.4948 29.5017C14.4004 29.4191 14.3179 29.4073 14.3179 29.4781Z" fill="#22EFFC"/>
</svg>
