<svg width="28" height="24" viewBox="0 0 28 24" fill="none" xmlns="http://www.w3.org/2000/svg">
<path d="M1.35484 0C0.604032 0 0 0.604032 0 1.35484V4.06452C0 4.81532 0.604032 5.41935 1.35484 5.41935H4.06452C4.81532 5.41935 5.41935 4.81532 5.41935 4.06452V1.35484C5.41935 0.604032 4.81532 0 4.06452 0H1.35484ZM9.93548 0.903226C8.93629 0.903226 8.12903 1.71048 8.12903 2.70968C8.12903 3.70887 8.93629 4.51613 9.93548 4.51613H26.1935C27.1927 4.51613 28 3.70887 28 2.70968C28 1.71048 27.1927 0.903226 26.1935 0.903226H9.93548ZM9.93548 9.93548C8.93629 9.93548 8.12903 10.7427 8.12903 11.7419C8.12903 12.7411 8.93629 13.5484 9.93548 13.5484H26.1935C27.1927 13.5484 28 12.7411 28 11.7419C28 10.7427 27.1927 9.93548 26.1935 9.93548H9.93548ZM9.93548 18.9677C8.93629 18.9677 8.12903 19.775 8.12903 20.7742C8.12903 21.7734 8.93629 22.5806 9.93548 22.5806H26.1935C27.1927 22.5806 28 21.7734 28 20.7742C28 19.775 27.1927 18.9677 26.1935 18.9677H9.93548ZM0 10.3871V13.0968C0 13.8476 0.604032 14.4516 1.35484 14.4516H4.06452C4.81532 14.4516 5.41935 13.8476 5.41935 13.0968V10.3871C5.41935 9.63629 4.81532 9.03226 4.06452 9.03226H1.35484C0.604032 9.03226 0 9.63629 0 10.3871ZM1.35484 18.0645C0.604032 18.0645 0 18.6685 0 19.4194V22.129C0 22.8798 0.604032 23.4839 1.35484 23.4839H4.06452C4.81532 23.4839 5.41935 22.8798 5.41935 22.129V19.4194C5.41935 18.6685 4.81532 18.0645 4.06452 18.0645H1.35484Z" fill="#22EFFC"/>
</svg>
