<svg width="28" height="28" viewBox="0 0 28 28" fill="none" xmlns="http://www.w3.org/2000/svg">
<path d="M0 3.06597V12.6351C0 13.7232 0.428849 14.7665 1.19694 15.5346L12.4622 26.7999C14.0624 28.4001 16.6547 28.4001 18.2549 26.7999L26.7999 18.2549C28.4 16.6547 28.4 14.0624 26.7999 12.4622L15.5346 1.19696C14.7665 0.428871 13.7232 2.2238e-05 12.635 2.2238e-05H3.07235C1.37616 -0.00637849 0 1.36978 0 3.06597ZM7.16882 5.11421C7.71204 5.11421 8.23302 5.33 8.61714 5.71412C9.00126 6.09824 9.21705 6.61922 9.21705 7.16244C9.21705 7.70567 9.00126 8.22664 8.61714 8.61076C8.23302 8.99488 7.71204 9.21067 7.16882 9.21067C6.62559 9.21067 6.10462 8.99488 5.7205 8.61076C5.33638 8.22664 5.12058 7.70567 5.12058 7.16244C5.12058 6.61922 5.33638 6.09824 5.7205 5.71412C6.10462 5.33 6.62559 5.11421 7.16882 5.11421Z" fill="#22EFFC"/>
</svg>
