<svg width="28" height="35" viewBox="0 0 28 35" fill="none" xmlns="http://www.w3.org/2000/svg">
<path fill-rule="evenodd" clip-rule="evenodd" d="M14 0L28 23.3156H22.8739C22.6789 24.617 22.1812 25.8244 21.4521 26.8699C21.5751 26.6268 21.6864 26.3767 21.7838 26.1204C22.1093 25.2662 22.287 24.3435 22.287 23.3808L22.286 23.3156C22.286 23.1965 22.2815 23.078 22.2751 22.9602L22.2697 22.8716C22.2359 22.3688 22.1539 21.8762 22.0282 21.4013C21.9616 21.1494 21.8823 20.9023 21.7912 20.6614L21.7201 20.4797C21.1075 18.9756 20.0338 17.6929 18.6657 16.7951C18.5282 15.9797 18.3731 15.222 18.2036 14.5188L18.1864 14.4494C16.9987 9.57605 15.1347 7.35175 14 6.79218C12.8643 7.35191 11.0013 9.57345 9.81363 14.4492C9.63779 15.1707 9.47548 15.954 9.33427 16.7948C7.5724 17.9511 6.29818 19.7441 5.86979 21.8295L5.85977 21.8796C5.82786 22.0417 5.80052 22.2055 5.77955 22.371L5.77135 22.433C5.73307 22.7437 5.71302 23.0601 5.71302 23.3808C5.71302 23.9146 5.76771 24.4361 5.87162 24.9404C6.01198 25.6184 6.24167 26.2655 6.54791 26.8697C5.81876 25.8242 5.32109 24.6169 5.12604 23.3156H0L14 0ZM14 14.0304C15.0901 14.0304 15.9742 13.1804 15.9742 12.132C15.9742 11.0835 15.0901 10.2336 14 10.2336C12.9099 10.2336 12.0258 11.0835 12.0258 12.132C12.0258 13.1804 12.9099 14.0304 14 14.0304ZM8.5668 28.6709V23.3808C8.5668 21.7309 9.36245 20.2595 10.6048 19.302V28.6709C10.6048 29.212 10.1481 29.6505 9.5858 29.6505C9.02252 29.6505 8.5668 29.212 8.5668 28.6709ZM12.6419 32.916V18.3207C13.0767 18.2132 13.5315 18.1561 14.0009 18.1561C14.4694 18.1561 14.9251 18.2132 15.359 18.3206V32.916C15.359 33.6374 14.7511 34.2222 14.0009 34.2222C13.2499 34.2222 12.6419 33.6374 12.6419 32.916ZM17.397 28.6709V19.3018C18.6275 20.2502 19.4195 21.7026 19.4341 23.3335V28.6709C19.4341 29.212 18.9784 29.6505 18.4151 29.6505C17.8527 29.6505 17.397 29.212 17.397 28.6709Z" fill="#22EFFC"/>
</svg>
