<svg width="28" height="28" viewBox="0 0 28 28" fill="none" xmlns="http://www.w3.org/2000/svg">
<path d="M11.642 0.180763C10.2742 0.398195 8.19401 1.10847 7.22514 1.67379C5.97131 2.39856 5.33015 2.89141 5.50112 3.00737C5.60086 3.06535 5.87157 2.9204 6.11379 2.68847C6.75495 2.07966 8.94916 1.05049 10.3597 0.688103C11.927 0.296726 14.5059 0.151772 16.059 0.383699C18.1392 0.702599 19.8347 1.3259 21.5017 2.41306C22.1714 2.83343 22.3281 3.00737 22.3281 3.32627C22.3281 3.5437 22.2569 3.76114 22.1856 3.80462C22.1001 3.8626 21.6157 3.63068 21.117 3.31178C18.8943 1.87673 17.0136 1.35489 14.0642 1.35489C12.4114 1.35489 11.7418 1.41287 10.7444 1.67379C9.51908 1.9782 7.65258 2.77545 7.22514 3.16682C7.11116 3.28279 7.03992 3.35526 7.06841 3.32627C7.11116 3.31178 7.29638 3.44224 7.49585 3.61618C7.83781 3.92058 7.83781 3.92058 7.60984 3.64517C7.35337 3.34077 7.36762 3.32627 7.82356 3.03636C9.7328 1.84774 12.7676 1.25343 15.3465 1.54333C17.0991 1.74627 18.1677 2.03618 19.4642 2.65948C23.9239 4.79031 26.6168 9.13894 26.631 14.2413C26.631 16.6476 26.1466 18.6914 25.2347 20.0685C24.964 20.4744 24.8928 20.5034 24.7503 20.3294C24.6078 20.1555 24.6078 20.0685 24.7503 19.8945C24.85 19.7641 24.8928 19.6336 24.85 19.5756C24.793 19.5322 24.0379 19.4452 23.1545 19.4017C21.5445 19.3147 21.5445 19.3147 21.9862 19.0683C22.6131 18.7204 23.4537 17.7202 23.8384 16.865C25.1492 13.9514 23.9951 10.1826 21.5017 9.24041C20.6611 8.92151 19.6067 8.86353 18.9086 9.12444C18.4954 9.2549 18.4099 9.2549 18.2389 9.02298C18.0964 8.80554 18.0537 8.79105 18.0537 8.97949C18.0537 9.31289 18.6094 9.96518 18.8943 9.96518C19.0226 9.96518 19.222 9.87821 19.3218 9.77674C19.6637 9.45784 19.1935 10.2841 18.7803 10.7334C18.2532 11.3133 17.7402 11.5597 17.0278 11.5597L16.4152 11.5452L16.7856 11.3277C17.4838 10.8784 18.1534 9.50133 17.5408 9.73325C17.4125 9.77674 17.27 9.82022 17.1988 9.82022C17.1276 9.82022 16.7856 10.0522 16.4294 10.3276C16.059 10.603 15.7455 10.7624 15.7027 10.6755C15.6458 10.603 15.3608 9.77674 15.0473 8.83454C14.6056 7.50096 14.4632 6.86316 14.4204 5.86297C14.3634 4.74682 14.3919 4.58737 14.5771 4.65985C14.7054 4.70334 14.8621 4.74682 14.9191 4.74682C14.9903 4.74682 15.2896 4.94976 15.5888 5.21068C16.0874 5.63104 16.0874 5.61655 15.489 4.99325C15.1471 4.61637 14.9334 4.31196 15.0188 4.31196C15.3323 4.31196 16.7714 6.10939 17.2985 7.15306C17.5977 7.73288 17.8542 8.18224 17.8827 8.15325C17.9397 8.09527 17.1703 6.55875 16.8141 6.03692C16.6716 5.81949 16.1587 5.21068 15.66 4.67435C14.7909 3.74664 14.7481 3.71765 14.4774 3.96407C14.1782 4.23948 14.0927 4.05104 14.3919 3.74664C14.5202 3.58719 14.5202 3.5437 14.3919 3.48572C14.2922 3.44224 14.107 3.21031 13.993 2.96389C13.594 2.12315 13.3661 1.90572 13.0953 2.07966C12.9671 2.16664 12.8389 2.31159 12.8389 2.41306C12.8246 2.50003 12.8104 2.63049 12.7961 2.71746C12.7961 2.78994 12.6822 2.86242 12.5539 2.86242C12.4399 2.86242 12.3829 2.93489 12.4257 3.00737C12.4827 3.09435 12.6537 3.12333 12.8104 3.06535C13.0099 3.00737 13.0669 3.03636 13.0099 3.13783C12.9529 3.2248 12.7961 3.29728 12.6679 3.31178C12.5112 3.32627 12.5539 3.36976 12.7819 3.44224C13.0241 3.51471 13.0526 3.5582 12.8959 3.57269C12.7534 3.58719 12.6394 3.68866 12.6394 3.81912C12.6394 3.99306 12.7391 4.02205 13.1096 3.94958L13.5655 3.8626L13.1096 4.16701C12.8531 4.34095 12.6394 4.5004 12.6394 4.52939C12.6394 4.71783 13.1523 5.03673 13.4658 5.03673C13.7365 5.03673 13.7935 5.08022 13.6795 5.19618C13.594 5.28316 13.4088 5.32664 13.2663 5.29765C13.0526 5.25416 12.8104 5.54407 12.212 6.57325L11.4283 7.89233L11.0009 7.63141C10.7729 7.47196 10.4737 7.32701 10.3597 7.28352C10.2457 7.24004 9.57607 6.90664 8.86367 6.54426C7.5671 5.89196 4.83146 4.99325 3.66312 4.8338C3.23568 4.79031 3.13594 4.79031 3.37816 4.87728L3.73436 4.99325L3.32117 5.16719C3.0932 5.25416 2.95072 5.37013 2.99346 5.41361C3.03621 5.4571 3.27842 5.38462 3.52064 5.25416C4.00507 4.99325 4.74598 5.06572 4.575 5.35563C4.50376 5.4571 4.53225 5.4716 4.64624 5.41361C4.74598 5.34114 5.05943 5.34114 5.33015 5.39912C5.72909 5.4716 5.80033 5.52958 5.6436 5.64554C5.50112 5.74701 5.54387 5.7615 5.81458 5.70352C6.28477 5.60205 7.11116 5.87747 6.98292 6.0949C6.92593 6.18187 7.01142 6.21086 7.22514 6.15288C7.42461 6.0949 7.78082 6.18187 8.12277 6.37031L8.70694 6.66022L8.35074 6.87765L8.00879 7.08059L8.36499 6.97912C8.83517 6.86316 8.80668 6.86316 9.26262 6.99362L9.66156 7.10958L9.12014 7.356C8.82093 7.48646 8.49322 7.70389 8.37924 7.83435C8.10852 8.18224 8.23675 8.13875 8.79243 7.71839C9.24837 7.3705 10.1175 7.22554 10.2742 7.47196C10.3312 7.57343 9.67581 7.93582 8.87792 8.22573C8.64995 8.3127 8.50747 8.41417 8.55021 8.45765C8.59296 8.50114 9.00615 8.37068 9.44784 8.16775C10.26 7.79086 10.2885 7.77637 10.7444 8.03729C11.0009 8.18224 11.2146 8.34169 11.2146 8.39967C11.2146 8.45765 10.9724 9.03747 10.6874 9.70426C10.2742 10.661 10.1602 11.0958 10.1602 11.8496C10.146 12.8353 10.0605 13.0092 9.57607 12.9947H9.29111L9.57607 12.8498C9.81829 12.7338 9.80404 12.7193 9.47634 12.7628C9.26262 12.7918 9.12014 12.7773 9.14863 12.7193C9.19138 12.6613 9.07739 12.5744 8.92066 12.5309C8.6357 12.4584 8.64995 12.4149 9.10589 12.0235C9.36235 11.7771 9.53333 11.5452 9.49059 11.5017C9.26262 11.2698 7.48161 10.9509 6.91168 11.0378C4.81722 11.3567 3.37816 13.4586 3.56338 15.9663C3.66312 17.4303 4.10481 18.503 5.03094 19.5322C5.87157 20.4454 5.87157 20.4019 4.84571 20.6193C4.17605 20.7498 4.13331 20.9672 4.78872 20.8802C5.10218 20.8368 5.52962 20.8512 5.75759 20.9092L6.15653 21.0107L5.65785 21.4311L5.15917 21.8514L5.81458 21.489C6.18503 21.2861 6.56973 21.1557 6.66947 21.1846C6.78345 21.2136 7.03992 21.2861 7.26789 21.3296C7.73807 21.4456 7.78082 21.8079 7.33913 21.9819C7.11116 22.0689 7.26789 22.0979 7.79506 22.0399C8.50747 21.9674 8.6357 21.9964 9.06314 22.3733C9.49059 22.7357 9.51908 22.7936 9.27687 22.8806C8.9919 22.9821 8.9919 22.9821 9.70431 23.214C9.93228 23.2865 9.93228 23.3445 9.77555 23.5619C9.60457 23.7793 9.60457 23.7938 9.80404 23.6344C9.96077 23.5039 10.1602 23.4894 10.5449 23.6054C11.1149 23.7648 11.1719 23.8663 10.9011 24.1562C10.7444 24.3157 10.7729 24.3302 11.0009 24.2142C11.1576 24.1417 11.4426 24.1127 11.642 24.1272C13.0384 24.2867 13.2093 24.4461 13.3376 25.8377L13.4231 26.7074L13.822 26.2725C14.0357 26.0406 14.2067 25.7072 14.2067 25.5623C14.2067 25.3448 14.2494 25.3158 14.3634 25.4318C14.4489 25.5188 14.6056 25.5623 14.7054 25.5188C14.8051 25.4898 14.9191 25.5768 14.9618 25.7217C15.0188 25.9391 15.0331 25.9391 15.0473 25.6782C15.0616 25.2579 15.6315 25.0984 15.888 25.4318C16.0447 25.6492 16.059 25.6492 16.059 25.4463C16.059 25.2579 16.2869 25.1854 17.1703 25.1129C17.7687 25.0549 18.4241 24.9969 18.6236 24.9824C18.8231 24.9679 19.3218 24.8375 19.7207 24.6925L20.4759 24.4316L20.2051 23.9098L19.9344 23.3879L20.5328 23.0111C21.5017 22.3878 21.9149 22.2718 22.4706 22.4312C23.1402 22.6197 23.1687 22.6197 22.7698 22.2863C22.5846 22.1268 22.3281 21.9964 22.1999 21.9964C22.0004 21.9964 22.0004 21.9674 22.1856 21.8514C22.2996 21.779 22.3424 21.7065 22.2711 21.7065C22.1856 21.7065 22.2569 21.605 22.4136 21.489C22.7271 21.2426 24.1234 21.1991 24.2516 21.4311C24.4226 21.692 21.7724 24.1852 20.5471 24.9245C18.1249 26.3595 16.4579 26.8234 13.8505 26.8234C10.431 26.8234 7.62409 25.7362 5.20191 23.4604C2.50903 20.9237 1.31219 18.1261 1.34068 14.3863C1.35493 12.27 1.68264 10.8059 2.60876 8.82004C2.95072 8.08077 3.23568 7.44297 3.23568 7.42848C3.23568 7.41398 3.03621 7.356 2.79399 7.29802C2.46628 7.24004 2.36655 7.15306 2.43779 6.97912C2.49478 6.84866 2.45203 6.77618 2.36655 6.80518C2.11008 6.89215 0.99873 9.19692 0.614032 10.4C-0.92476 15.343 0.4858 20.8368 4.20455 24.3302C5.90007 25.9391 7.99454 27.1133 10.2885 27.7366C11.1006 27.9685 11.7703 28.012 13.9217 27.9975C16.3867 27.9975 16.6431 27.9685 17.84 27.5916C22.3566 26.1856 25.9756 22.7357 27.4004 18.474C28.3978 15.4879 28.1413 11.6177 26.7023 8.24022C25.5054 5.4426 23.1545 2.87691 20.5471 1.52884C18.0252 0.224249 14.5344 -0.312082 11.642 0.180763ZM13.2806 6.05141C13.3233 6.12389 13.48 6.19637 13.6225 6.19637C13.8505 6.19637 13.9075 6.37031 13.993 7.42848C14.0927 8.67509 14.0642 9.13894 13.708 12.067C13.594 12.9367 13.5513 13.85 13.594 14.0964C13.6938 14.6182 14.0215 15.0386 14.3349 15.0531C14.4632 15.0531 14.4204 15.1111 14.2067 15.198C14.0072 15.285 13.6225 15.314 13.3518 15.2705C13.0669 15.227 12.6537 15.2415 12.4257 15.314C12.041 15.43 12.0837 15.4445 12.8959 15.5459C13.3803 15.6039 13.7793 15.7199 13.7793 15.7923C13.7793 16.1112 13.4658 16.4736 13.0811 16.6041C12.269 16.894 9.78979 16.3432 9.78979 15.8648C9.78979 15.7634 9.93228 15.5169 10.089 15.343C10.4025 15.0096 10.5164 14.9951 11.642 15.256C11.9555 15.3285 11.9555 15.314 11.7133 15.198C11.4568 15.0676 11.4568 15.0531 11.813 15.0531C12.2262 15.0386 12.8389 14.3863 12.7249 14.0674C12.6822 13.9659 12.6964 13.8789 12.7676 13.8789C12.8389 13.8789 12.9244 13.7485 12.9671 13.589C13.0953 13.0672 11.5708 11.8641 10.7587 11.8496C10.6304 11.8496 10.488 11.7916 10.431 11.7191C10.3455 11.5742 11.0009 9.63178 11.3856 8.89252L11.5993 8.47215L12.2975 9.10995C12.6822 9.45784 12.8674 9.5883 12.7107 9.38536C12.5539 9.18243 12.326 8.9505 12.212 8.84903C12.0552 8.71857 12.041 8.67509 12.1835 8.66059C12.3972 8.66059 12.269 8.37068 12.0552 8.37068C11.9698 8.37068 11.9555 8.44316 12.0125 8.54463C12.0695 8.6461 12.0552 8.66059 11.9413 8.60261C11.8558 8.54463 11.813 8.44316 11.8558 8.37068C11.8985 8.2982 11.87 8.21123 11.7845 8.15325C11.6278 8.05178 11.7133 7.83435 12.4399 6.66022C12.9101 5.92095 13.1096 5.776 13.2806 6.05141ZM14.8764 9.10995C15.4035 10.1536 15.8737 11.8496 15.9592 13.0382C16.0162 13.9079 15.9877 14.1689 15.8452 14.1689C15.7455 14.1689 15.4605 14.2123 15.2041 14.2558L14.7481 14.3573L15.1186 13.9804C15.5175 13.5745 15.5603 13.1542 15.375 11.8496L15.2753 11.1973L14.8906 11.7191C14.4347 12.3134 14.0642 13.1687 14.0642 13.589C14.0642 13.763 14.0072 13.8644 13.9502 13.821C13.8932 13.792 13.9217 12.9802 14.0215 12.038C14.107 11.0958 14.1925 9.87821 14.1925 9.34188C14.2067 8.18224 14.3777 8.12426 14.8764 9.10995ZM19.1365 11.8496C18.6094 12.6613 17.8685 13.1832 17.1276 13.2556C16.5434 13.3281 16.5006 13.3136 16.4009 12.9367C16.2584 12.3714 16.4864 12.0815 17.1703 11.9655C17.8257 11.8496 18.3671 11.5887 18.9798 11.0668C19.393 10.7334 19.4072 10.7189 19.45 11.0089C19.4785 11.1683 19.336 11.5452 19.1365 11.8496ZM7.35337 12.5019C7.78082 12.7193 8.13702 13.4006 8.05153 13.821C7.98029 14.2268 7.35337 14.5167 6.78345 14.4008C5.92857 14.2413 5.85733 14.1399 6.09954 13.4151C6.27052 12.8643 6.66947 12.2844 6.86894 12.2844C6.92593 12.2844 7.13965 12.3859 7.35337 12.5019ZM11.3571 12.8643C11.2431 12.9367 10.9866 12.9947 10.7872 12.9947C10.4595 12.9802 10.4595 12.9657 10.8584 12.8643C11.4711 12.7048 11.5993 12.7048 11.3571 12.8643ZM8.79243 14.9371C8.251 15.7054 7.93755 16.72 7.93755 17.7057C7.93755 19.0103 8.59296 21.0832 9.26262 21.8514L9.57607 22.2138L9.17713 21.8514C8.6357 21.3731 7.96604 19.9235 7.79506 18.8799C7.55285 17.4013 7.99454 15.5459 8.76393 14.7052C9.29111 14.1399 9.30536 14.2268 8.79243 14.9371ZM23.4537 15.169C23.6104 15.2705 23.6104 15.3865 23.468 15.8503C23.3682 16.1692 23.1687 16.5896 23.0263 16.7925C22.7698 17.1694 21.8009 17.7347 21.6584 17.6043C21.4732 17.4158 22.8553 15.0386 23.1545 15.0386C23.2115 15.0386 23.3397 15.0966 23.4537 15.169ZM17.2843 15.9808C17.327 16.1837 17.327 16.4446 17.2843 16.5751C17.213 16.7635 17.1418 16.749 16.7429 16.4736C16.0732 15.9953 16.0162 15.8648 16.3582 15.5894C16.7286 15.2705 17.1561 15.4589 17.2843 15.9808ZM6.85469 19.0248C7.25364 19.4017 7.28213 19.5032 7.09691 19.8076C6.92593 20.083 6.37026 19.9235 5.81458 19.4452C5.34439 19.0538 5.27315 18.8219 5.52962 18.561C5.74334 18.3435 6.37026 18.5755 6.85469 19.0248ZM17.8257 19.7061C17.8115 20.3294 17.441 20.9092 16.7144 21.4311C16.0732 21.9239 15.774 21.9674 15.774 21.5905C15.774 21.0832 17.384 19.0393 17.6975 19.1408C17.7687 19.1698 17.84 19.4307 17.8257 19.7061ZM10.6447 22.1703C10.6447 22.2428 10.5449 22.2863 10.431 22.2863C10.0605 22.2863 9.50483 21.605 9.50483 21.1701C9.51908 20.7643 9.51908 20.7643 10.0748 21.4166C10.3882 21.779 10.6447 22.1123 10.6447 22.1703ZM13.765 22.4312C14.0785 22.5907 13.1523 22.7646 12.5539 22.6632C12.0267 22.5617 11.9128 22.3443 12.326 22.2428C12.6109 22.1703 13.48 22.2718 13.765 22.4312Z" fill="#22EFFC"/>
</svg>
