<svg width="25" height="29" viewBox="0 0 25 29" fill="none" xmlns="http://www.w3.org/2000/svg">
<path d="M12.2105 14.5C14.0611 14.5 15.8358 13.7362 17.1443 12.3765C18.4528 11.0169 19.188 9.17282 19.188 7.25C19.188 5.32718 18.4528 3.48311 17.1443 2.12348C15.8358 0.763837 14.0611 0 12.2105 0C10.36 0 8.58525 0.763837 7.27673 2.12348C5.9682 3.48311 5.23308 5.32718 5.23308 7.25C5.23308 9.17282 5.9682 11.0169 7.27673 12.3765C8.58525 13.7362 10.36 14.5 12.2105 14.5ZM9.71936 17.2188C4.35 17.2188 0 21.7387 0 27.3178C0 28.2467 0.725 29 1.61899 29H22.8021C23.6961 29 24.4211 28.2467 24.4211 27.3178C24.4211 21.7387 20.0711 17.2188 14.7017 17.2188H9.71936Z" fill="#22EFFC"/>
</svg>
