<svg width="28" height="25" viewBox="0 0 28 25" fill="none" xmlns="http://www.w3.org/2000/svg">
<path d="M0 3.5C0 1.56953 1.56953 0 3.5 0H24.5C26.4305 0 28 1.56953 28 3.5V21C28 22.9305 26.4305 24.5 24.5 24.5H3.5C1.56953 24.5 0 22.9305 0 21V3.5ZM17.7078 9.32422C17.4617 8.96328 17.057 8.75 16.625 8.75C16.193 8.75 15.7828 8.96328 15.5422 9.32422L10.7844 16.3023L9.33516 14.4922C9.08359 14.1805 8.70625 14 8.3125 14C7.91875 14 7.53594 14.1805 7.28984 14.4922L3.78984 18.8672C3.47266 19.2609 3.4125 19.8023 3.63125 20.2563C3.85 20.7102 4.30937 21 4.8125 21H10.0625H11.8125H23.1875C23.6742 21 24.1227 20.732 24.3469 20.3C24.5711 19.868 24.5437 19.3484 24.2703 18.9492L17.7078 9.32422ZM6.125 8.75C6.82119 8.75 7.48887 8.47344 7.98116 7.98116C8.47344 7.48887 8.75 6.82119 8.75 6.125C8.75 5.42881 8.47344 4.76113 7.98116 4.26884C7.48887 3.77656 6.82119 3.5 6.125 3.5C5.42881 3.5 4.76113 3.77656 4.26884 4.26884C3.77656 4.76113 3.5 5.42881 3.5 6.125C3.5 6.82119 3.77656 7.48887 4.26884 7.98116C4.76113 8.47344 5.42881 8.75 6.125 8.75Z" fill="#22EFFC"/>
</svg>
