<svg width="28" height="28" viewBox="0 0 28 28" fill="none" xmlns="http://www.w3.org/2000/svg">
<path d="M22.4667 12.6518L23.0855 12.0331L21.2292 10.1768L17.8287 6.7763L15.9724 4.92L15.3536 5.53877L14.1161 6.7763L3.20833 17.6841C2.63885 18.2536 2.22269 18.9599 1.99271 19.732L0.0542746 26.3249C-0.0826203 26.7849 0.0433229 27.2832 0.388298 27.6227C0.733273 27.9622 1.22609 28.0881 1.68606 27.9567L8.27344 26.0182C9.04553 25.7883 9.75191 25.3721 10.3214 24.8026L21.2292 13.8948L22.4667 12.6518ZM8.76079 21.8731L8.26249 23.1161C8.04346 23.2858 7.79705 23.4118 7.53421 23.4939L3.25214 24.7533L4.51157 20.4767C4.58823 20.2084 4.71965 19.962 4.8894 19.7485L6.13241 19.2502V21.0024C6.13241 21.4843 6.52667 21.8785 7.00854 21.8785H8.76079V21.8731ZM19.8602 1.02671L19.0717 1.8207L17.8342 3.05823L17.2099 3.677L19.0662 5.53329L22.4667 8.93376L24.323 10.7901L24.9418 10.1713L26.1793 8.93376L26.9733 8.13977C28.3422 6.77082 28.3422 4.55312 26.9733 3.18418L24.8213 1.02671C23.4524 -0.342237 21.2347 -0.342237 19.8657 1.02671H19.8602ZM17.2647 10.226L9.37955 18.1112C9.04006 18.4507 8.48152 18.4507 8.14202 18.1112C7.80253 17.7717 7.80253 17.2132 8.14202 16.8737L16.0272 8.98852C16.3667 8.64902 16.9252 8.64902 17.2647 8.98852C17.6042 9.32802 17.6042 9.88655 17.2647 10.226Z" fill="#22EFFC"/>
</svg>
