<svg width="36" height="19" viewBox="0 0 36 19" fill="none" xmlns="http://www.w3.org/2000/svg">
<path d="M18 0.948307C27.6412 0.948307 35.055 5.02377 35.055 9.5C35.055 13.9762 27.6356 18.0517 18 18.0517C8.35875 18.0517 0.945 13.9762 0.945 9.5C0.945 5.02377 8.36437 0.948307 18 0.948307ZM18 0C8.06063 0 0 4.25045 0 9.5C0 14.7496 8.06063 19 18 19C27.9394 19 36 14.7496 36 9.5C36 4.25045 27.9394 0 18 0ZM12.2737 8.73797C11.8294 11.0241 10.26 10.787 8.33063 10.787L9.10125 6.80184C11.2387 6.80184 12.69 6.57041 12.2737 8.73797ZM5.47875 14.8229H7.54313L8.0325 12.2941C10.3444 12.2941 11.7787 12.4635 13.1062 11.216C14.5744 9.86126 14.9569 7.45098 13.9106 6.24302C13.365 5.61081 12.4875 5.30036 11.295 5.30036H7.31813L5.47875 14.8229ZM15.9244 2.76589H17.9775L17.4881 5.29471C19.26 5.29471 20.9025 5.16488 21.6956 5.89869C22.5281 6.66637 22.1287 7.64854 21.2287 12.2828H19.1475C20.0137 7.80095 20.1769 7.4284 19.8619 7.08972C19.5581 6.76233 18.8663 6.83007 17.1956 6.83007L16.1381 12.2828H14.085L15.9244 2.76589ZM28.4062 8.73797C27.9562 11.0579 26.3419 10.787 24.4631 10.787L25.2337 6.80184C27.3825 6.80184 28.8225 6.57041 28.4062 8.73797ZM21.6112 14.8229H23.6812L24.1706 12.2941C26.6006 12.2941 27.945 12.4352 29.2444 11.216C30.7125 9.86126 31.095 7.45098 30.0487 6.24302C29.5031 5.61081 28.6256 5.30036 27.4331 5.30036H23.4562L21.6112 14.8229Z" fill="#22EFFC"/>
</svg>
