<svg width="29" height="18" viewBox="0 0 29 18" fill="none" xmlns="http://www.w3.org/2000/svg">
<mask id="mask0_97_22" style="mask-type:luminance" maskUnits="userSpaceOnUse" x="0" y="0" width="29" height="18">
<path d="M0 0H29V17.4H0V0Z" fill="white"/>
</mask>
<g mask="url(#mask0_97_22)">
<path fill-rule="evenodd" clip-rule="evenodd" d="M14.5 0C10.6333 0 8.21667 1.93333 7.25 5.8C8.7 3.86667 10.3917 3.14167 12.325 3.625C13.4281 3.9005 14.2164 4.70122 15.0891 5.5868C16.5107 7.02982 18.1561 8.7 21.75 8.7C25.6167 8.7 28.0333 6.76667 29 2.9C27.55 4.83333 25.8583 5.55833 23.925 5.075C22.8219 4.7995 22.0336 3.99878 21.1609 3.1132C19.7393 1.67019 18.0939 0 14.5 0ZM7.25 8.7C3.38333 8.7 0.966667 10.6333 0 14.5C1.45 12.5667 3.14167 11.8417 5.075 12.325C6.17807 12.601 6.96644 13.4012 7.83913 14.2868C9.26067 15.7298 10.9061 17.4 14.5 17.4C18.3667 17.4 20.7833 15.4667 21.75 11.6C20.3 13.5333 18.6083 14.2583 16.675 13.775C15.5719 13.4995 14.7836 12.6988 13.9109 11.8132C12.4893 10.3702 10.8439 8.7 7.25 8.7Z" fill="#22EFFC"/>
</g>
</svg>
