<svg width="20" height="17" viewBox="0 0 20 17" fill="none" xmlns="http://www.w3.org/2000/svg">
<path d="M9.69284 12.8009H4.28771L3.18344 16.2154C3.15438 16.3462 3.03814 16.4333 2.90737 16.4188H0.175747C0.0159181 16.4188 -0.0276714 16.3316 0.0159183 16.1573L4.69455 2.68803C4.73814 2.54273 4.78173 2.38291 4.83985 2.20855C4.89797 1.90342 4.92703 1.58376 4.92703 1.2641C4.9125 1.19145 4.97062 1.1188 5.04327 1.10427H8.80652C8.92276 1.10427 8.98088 1.14786 8.99541 1.22051L14.2988 16.1863C14.3424 16.3462 14.2988 16.4188 14.1535 16.4188H11.1168C11.0151 16.4333 10.9134 16.3607 10.8843 16.259L9.69284 12.8009ZM5.13045 9.85128H8.82105C8.73387 9.54615 8.61763 9.18291 8.48686 8.80513C8.35609 8.41282 8.22532 7.99145 8.09455 7.55556C7.94925 7.10513 7.81848 6.66923 7.67318 6.2188C7.52788 5.76837 7.39712 5.34701 7.28088 4.92564C7.16464 4.5188 7.06293 4.14103 6.96122 3.79231H6.93216C6.80139 4.41709 6.64156 5.04188 6.43814 5.66667C6.22019 6.3641 6.00224 7.0906 5.76976 7.81709C5.56635 8.55812 5.3484 9.24102 5.13045 9.85128ZM17.539 3.64701C17.0595 3.66154 16.5946 3.47265 16.2458 3.13846C15.9116 2.77521 15.7373 2.29573 15.7518 1.80171C15.7373 1.30769 15.9262 0.842735 16.2749 0.508547C16.6236 0.174359 17.0886 0 17.5681 0C18.1347 0 18.5706 0.174359 18.8903 0.508547C19.2099 0.857265 19.3843 1.32222 19.3698 1.80171C19.3843 2.29573 19.2099 2.77521 18.8612 3.13846C18.527 3.48718 18.033 3.67607 17.539 3.64701ZM15.9116 16.259V5.07094C15.9116 4.92564 15.9698 4.86752 16.1005 4.86752H18.9775C19.1082 4.86752 19.1663 4.94017 19.1663 5.07094V16.259C19.1663 16.4188 19.1082 16.4915 18.9775 16.4915H16.1296C15.9843 16.4915 15.9116 16.4043 15.9116 16.259Z" fill="#22EFFC"/>
</svg>
