<svg width="21" height="16" viewBox="0 0 21 16" fill="none" xmlns="http://www.w3.org/2000/svg">
<path d="M0 15.1983V0.247009C0 0.145299 0.0435897 0.0871793 0.145299 0.0871793C0.392308 0.0871793 0.624786 0.0871795 0.958974 0.0726496C1.30769 0.0581197 1.67094 0.0581195 2.06325 0.0435896C2.45556 0.0290597 2.87692 0.0290596 3.32735 0.0145297C3.77778 -2.21925e-07 4.21368 0 4.64957 0C5.84103 0 6.82906 0.145299 7.64274 0.450427C8.36923 0.697436 9.03761 1.10427 9.58974 1.64188C10.0547 2.10684 10.4179 2.6735 10.6504 3.29829C10.8684 3.90855 10.9846 4.53333 10.9846 5.18718C10.9846 6.43675 10.694 7.46838 10.1128 8.28205C9.53162 9.09573 8.71795 9.70598 7.7735 10.0547C6.78547 10.4179 5.69573 10.5487 4.50427 10.5487C4.15556 10.5487 3.92308 10.5487 3.77778 10.5342C3.63248 10.5197 3.42906 10.5197 3.15299 10.5197V15.1838C3.16752 15.2855 3.09487 15.3726 2.99316 15.3872C2.97863 15.3872 2.9641 15.3872 2.93504 15.3872H0.174359C0.0581198 15.3872 0 15.3291 0 15.1983ZM3.16752 2.89145V7.7735C3.37094 7.78803 3.55983 7.80256 3.73419 7.80256H4.50427C5.07094 7.80256 5.63761 7.71538 6.17521 7.54103C6.64017 7.41026 7.04701 7.13419 7.36667 6.77094C7.67179 6.40769 7.81709 5.91368 7.81709 5.27436C7.83162 4.82393 7.71538 4.3735 7.48291 3.9812C7.2359 3.60342 6.88718 3.31282 6.46581 3.15299C5.92821 2.93504 5.34701 2.84786 4.75128 2.86239C4.3735 2.86239 4.03932 2.86239 3.76325 2.87692C3.47265 2.86239 3.26923 2.87692 3.16752 2.89145Z" fill="#22EFFC"/>
<path d="M20.0512 6.88715C19.6153 6.65468 19.1503 6.49485 18.6563 6.39314C18.1187 6.2769 17.5811 6.20425 17.0289 6.20425C16.7383 6.18972 16.4332 6.23331 16.1572 6.30596C15.9683 6.34955 15.8084 6.45126 15.7067 6.59656C15.6341 6.71279 15.5905 6.85809 15.5905 6.98886C15.5905 7.11963 15.6486 7.2504 15.7358 7.36664C15.8666 7.52647 16.0409 7.65724 16.2298 7.75895C16.564 7.93331 16.9127 8.09314 17.2614 8.23844C18.046 8.49997 18.8016 8.86322 19.499 9.29912C19.9785 9.60425 20.3708 10.0111 20.6469 10.5051C20.8794 10.9701 20.9956 11.4786 20.9811 12.0017C20.9956 12.6846 20.7922 13.3675 20.4144 13.9342C20.0076 14.5154 19.4409 14.9658 18.7871 15.2273C18.0751 15.5325 17.2033 15.6923 16.1572 15.6923C15.4888 15.6923 14.8349 15.6342 14.1811 15.5034C13.6725 15.4162 13.164 15.2564 12.699 15.0384C12.5973 14.9803 12.5247 14.8786 12.5392 14.7624V12.2342C12.5392 12.1906 12.5537 12.1325 12.5973 12.1034C12.6409 12.0743 12.6845 12.0889 12.7281 12.1179C13.2948 12.4521 13.8905 12.6846 14.5298 12.8299C15.0819 12.9752 15.6631 13.0478 16.2443 13.0478C16.7965 13.0478 17.1888 12.9752 17.4503 12.8444C17.6828 12.7427 17.8426 12.4957 17.8426 12.2342C17.8426 12.0307 17.7264 11.8419 17.4939 11.653C17.2614 11.4641 16.7819 11.2461 16.07 10.9701C15.3289 10.7085 14.646 10.3598 14.0067 9.92391C13.5563 9.60425 13.1785 9.18288 12.9025 8.68886C12.67 8.22391 12.5537 7.71536 12.5683 7.20681C12.5683 6.58203 12.7426 5.9863 13.0623 5.44869C13.4255 4.8675 13.9631 4.40254 14.5879 4.11194C15.2708 3.76322 16.1281 3.60339 17.1597 3.60339C17.7554 3.60339 18.3657 3.64698 18.9614 3.73416C19.3973 3.79228 19.8187 3.90852 20.211 4.06835C20.2691 4.08288 20.3272 4.141 20.3563 4.19912C20.3708 4.25724 20.3854 4.31536 20.3854 4.37348V6.74185C20.3854 6.79997 20.3563 6.85809 20.3127 6.88715C20.1819 6.91621 20.1093 6.91621 20.0512 6.88715Z" fill="#22EFFC"/>
</svg>
