<svg width="28" height="29" viewBox="0 0 28 29" fill="none" xmlns="http://www.w3.org/2000/svg">
<path d="M14 0C6.26613 0 0 6.48992 0 14.5C0 22.5101 6.26613 29 14 29C21.7339 29 28 22.5101 28 14.5C28 6.48992 21.7339 0 14 0ZM21.5476 8.39012C20.8984 8.41351 20.4524 8.01008 20.4298 7.40202C20.4129 6.86411 20.8081 6.61855 20.7968 6.29698C20.7855 5.91109 20.221 5.89939 20.0685 5.90524C17.8218 5.98125 17.325 9.2379 16.7435 12.5647C17.9516 12.7518 18.8153 12.5238 19.2895 12.2022C19.9669 11.7462 19.1032 11.2843 19.2105 10.7639C19.4363 9.6998 21.0508 9.65302 21.0169 11.0738C20.9944 12.1204 19.5548 13.5177 16.6363 13.1611C16.0266 16.6399 15.5976 19.8849 13.3508 22.6153C11.7137 24.6325 10.054 24.9423 9.30887 24.9716C7.91452 25.0242 6.99435 24.2524 6.96048 23.2292C6.92661 22.2353 7.77903 21.6915 8.33226 21.674C9.56855 21.6272 10.0315 23.1766 9.17339 23.6619C8.49032 24.229 9.17903 24.3986 9.29194 24.3986C9.87903 24.3752 10.2685 24.077 10.5452 23.8724C11.9 22.703 12.4194 20.6625 13.1081 16.9498C13.571 14.044 14.0677 12.3893 14.1355 12.1554C13.1815 11.4071 12.6056 10.4833 11.3185 10.1266C10.4379 9.88105 9.90161 10.0915 9.52339 10.5827C9.07742 11.1673 9.22419 11.9274 9.65887 12.3776L10.3702 13.1962C11.2452 14.2427 11.725 15.0613 11.5444 16.1546C11.2565 17.9028 9.24677 19.2476 6.86452 18.4875C4.83226 17.8385 4.45403 16.3476 4.69677 15.529C5.12016 14.1141 7.09032 14.845 6.65 16.3242C6.49194 16.827 6.37339 16.8329 6.29435 17.0901C6.03468 17.9554 8.65968 18.7506 9.17339 17.0083C9.42742 16.1605 8.87419 15.7395 7.91452 14.6754C6.30564 12.8161 7.01129 10.8458 8.08387 10.0155C11.0758 7.72359 13.7685 11.0504 14.3387 11.5357C16.4387 5.1627 20.0121 5.36734 20.1194 5.36734C21.5419 5.32056 22.6145 5.9871 22.6484 7.04536C22.6653 7.49556 22.4113 8.36673 21.5476 8.39597V8.39012Z" fill="#22EFFC"/>
</svg>
