<svg width="29" height="25" viewBox="0 0 29 25" fill="none" xmlns="http://www.w3.org/2000/svg">
<path d="M23.6871 8.10155C23.3813 8.00111 23.0754 7.90625 22.7695 7.81697C22.8205 7.6105 22.8658 7.40404 22.9111 7.19758C23.6078 3.87186 23.149 1.19901 21.6027 0.317366C20.1131 -0.525223 17.6832 0.350846 15.225 2.46011C14.9814 2.66657 14.7436 2.88419 14.517 3.10181C14.3641 2.95673 14.2055 2.81165 14.0469 2.67215C11.4697 0.417807 8.88691 -0.530803 7.34063 0.356426C5.85664 1.20459 5.41484 3.7212 6.03789 6.86836C6.1002 7.18084 6.16816 7.48774 6.24746 7.80022C5.88496 7.90067 5.52812 8.01227 5.19394 8.12945C2.16934 9.16176 0 10.7911 0 12.4763C0 14.2173 2.31094 15.9639 5.45449 17.0241C5.70938 17.1078 5.96426 17.1915 6.2248 17.264C6.13984 17.5988 6.06621 17.928 5.99824 18.2684C5.40352 21.3653 5.86797 23.8206 7.35195 24.6632C8.88125 25.5337 11.4527 24.6408 13.9562 22.4814C14.1545 22.3084 14.3527 22.1298 14.551 21.9401C14.8002 22.18 15.0607 22.4088 15.3213 22.632C17.7455 24.6855 20.1414 25.5169 21.6197 24.6743C23.149 23.8038 23.6475 21.1645 23.0018 17.9504C22.9508 17.7048 22.8941 17.4537 22.8318 17.197C23.0131 17.1468 23.1887 17.091 23.3643 17.0352C26.6324 15.9694 29 14.2452 29 12.4763C29 10.7856 26.7684 9.14502 23.6871 8.10155ZM16.0236 3.36408C18.1307 1.55614 20.0961 0.847471 20.991 1.35526C21.9482 1.89652 22.3164 4.08391 21.716 6.95764C21.6764 7.14736 21.6367 7.3315 21.5857 7.51564C20.3283 7.23664 19.0539 7.03576 17.7738 6.92416C17.0375 5.88626 16.2332 4.89301 15.3609 3.96114C15.5818 3.75468 15.7971 3.55938 16.0236 3.36408ZM9.47031 15.3724C9.75918 15.8578 10.0537 16.3433 10.3652 16.8176C9.48164 16.7227 8.60371 16.5832 7.73711 16.3991C7.98633 15.5956 8.29785 14.7641 8.66035 13.916C8.9209 14.407 9.18711 14.8925 9.47031 15.3724ZM7.7541 8.65955C8.56973 8.48099 9.43633 8.33591 10.3369 8.22431C10.0367 8.68745 9.74219 9.16176 9.46465 9.64164C9.18711 10.1159 8.91523 10.6014 8.66035 11.0925C8.30352 10.261 8.00332 9.44634 7.7541 8.65955ZM9.30606 12.5042C9.67988 11.7342 10.0877 10.9809 10.5182 10.2387C10.9486 9.49656 11.4131 8.77674 11.9002 8.06807C12.7498 8.00669 13.6164 7.97321 14.5 7.97321C15.3836 7.97321 16.2559 8.00669 17.0998 8.06807C17.5812 8.77116 18.04 9.49098 18.4762 10.2276C18.9123 10.9641 19.3201 11.7174 19.7053 12.4819C19.3258 13.2519 18.918 14.0108 18.4818 14.7586C18.0514 15.5007 17.5926 16.2205 17.1111 16.9348C16.2672 16.9962 15.3893 17.0241 14.5 17.0241C13.6107 17.0241 12.7498 16.9962 11.9172 16.9459C11.4244 16.2373 10.96 15.5119 10.5238 14.7697C10.0877 14.0276 9.68555 13.2743 9.30606 12.5042ZM19.5354 15.3612C19.8242 14.8702 20.0961 14.3735 20.3623 13.8713C20.7248 14.6804 21.042 15.5007 21.3195 16.3433C20.4416 16.5386 19.5523 16.6893 18.6574 16.7897C18.9633 16.321 19.2521 15.8411 19.5354 15.3612ZM20.351 11.0925C20.0848 10.6014 19.8129 10.1104 19.5297 9.63048C19.2521 9.15618 18.9633 8.68745 18.6631 8.22431C19.575 8.33591 20.4473 8.48657 21.2629 8.67071C21.0023 9.49656 20.6965 10.3001 20.351 11.0925ZM14.5113 4.81489C15.1061 5.45102 15.6668 6.12063 16.1879 6.81255C15.0664 6.76233 13.9393 6.76233 12.8178 6.81255C13.3729 6.09273 13.9449 5.42312 14.5113 4.81489ZM7.94102 1.39432C8.89258 0.847471 11.0053 1.62868 13.2313 3.57054C13.3729 3.6933 13.5145 3.82722 13.6617 3.96114C12.7838 4.89301 11.9738 5.88626 11.2318 6.92416C9.95176 7.03576 8.68301 7.23106 7.42559 7.50448C7.35195 7.2199 7.28965 6.92974 7.22734 6.63957C6.69492 3.93882 7.04609 1.9021 7.94102 1.39432ZM6.55332 16.1034C6.31543 16.0364 6.0832 15.9639 5.85098 15.8857C4.64453 15.5119 3.27383 14.9204 2.28262 14.1448C1.71055 13.7541 1.32539 13.1515 1.21777 12.4763C1.21777 11.4552 3.00762 10.1494 5.59043 9.2622C5.91328 9.1506 6.2418 9.05016 6.57031 8.9553C6.95547 10.1662 7.41992 11.3547 7.95801 12.5042C7.41426 13.6704 6.94414 14.8757 6.55332 16.1034ZM13.1576 21.5718C12.223 22.4144 11.1412 23.084 9.96309 23.5416C9.33437 23.8373 8.60938 23.8652 7.96367 23.6141C7.06309 23.1007 6.68926 21.131 7.19902 18.4805C7.26133 18.168 7.3293 17.8555 7.40859 17.5486C8.67734 17.8164 9.95742 18.0006 11.2545 18.0954C12.0021 19.1389 12.8234 20.1377 13.7014 21.0752C13.5201 21.2482 13.3389 21.4156 13.1576 21.5718ZM14.5453 20.2159C13.9676 19.602 13.3898 18.9213 12.8291 18.1903C13.3729 18.2126 13.9336 18.2238 14.5 18.2238C15.0834 18.2238 15.6555 18.2126 16.2219 18.1847C15.7008 18.8934 15.14 19.5686 14.5453 20.2159ZM21.9482 21.8899C21.8973 22.5706 21.5574 23.2068 21.0137 23.6364C20.1131 24.1498 18.193 23.4802 16.1199 21.7281C15.882 21.5272 15.6441 21.3095 15.4006 21.0863C16.2672 20.1433 17.0658 19.1445 17.7908 18.0954C19.0879 17.9894 20.3793 17.7941 21.6537 17.5095C21.7104 17.7383 21.7613 17.9671 21.8066 18.1903C22.0842 19.3956 22.1295 20.6511 21.9482 21.8899ZM22.9791 15.8913C22.8205 15.9415 22.6619 15.9918 22.4977 16.0364C22.1012 14.8199 21.6141 13.6314 21.0533 12.4763C21.5971 11.338 22.0559 10.1662 22.441 8.96646C22.7355 9.05016 23.0188 9.13944 23.2906 9.22872C25.9301 10.1215 27.7822 11.4496 27.7822 12.4652C27.7822 13.5588 25.8055 14.9706 22.9791 15.8913ZM14.5 15.0543C15.933 15.0543 17.0941 13.9104 17.0941 12.4986C17.0941 11.0869 15.933 9.94297 14.5 9.94297C13.067 9.94297 11.9059 11.0869 11.9059 12.4986C11.9059 13.9104 13.067 15.0543 14.5 15.0543Z" fill="#22EFFC"/>
</svg>
