<svg width="29" height="29" viewBox="0 0 29 29" fill="none" xmlns="http://www.w3.org/2000/svg">
<path d="M3.13972 9.43669L9.07419 25.6907C4.92298 23.6794 2.06391 19.423 2.06391 14.5C2.06391 12.6933 2.4498 10.9861 3.13972 9.43669ZM22.896 13.8744C22.896 12.3367 22.3464 11.2726 21.8728 10.4423C21.2413 9.41915 20.6508 8.54798 20.6508 7.5248C20.6508 6.37883 21.5161 5.31472 22.7381 5.31472C22.7907 5.31472 22.8433 5.32056 22.9018 5.32641C20.6859 3.29758 17.7391 2.05806 14.5 2.05806C10.1558 2.05806 6.33206 4.28569 4.10444 7.66512C4.39677 7.67682 4.67157 7.68266 4.90544 7.68266C6.20343 7.68266 8.22056 7.5248 8.22056 7.5248C8.89294 7.48387 8.96895 8.47198 8.30242 8.54798C8.30242 8.54798 7.63004 8.62399 6.88165 8.66492L11.4129 22.1359L14.1375 13.9738L12.2022 8.66492C11.5298 8.62399 10.8984 8.54798 10.8984 8.54798C10.226 8.50706 10.3079 7.48387 10.9744 7.5248C10.9744 7.5248 13.0266 7.68266 14.2486 7.68266C15.5466 7.68266 17.5637 7.5248 17.5637 7.5248C18.2361 7.48387 18.3121 8.47198 17.6456 8.54798C17.6456 8.54798 16.9732 8.62399 16.2248 8.66492L20.721 22.0365L21.9605 17.8911C22.4867 16.1722 22.896 14.9385 22.896 13.8744ZM14.7163 15.5875L10.9861 26.4333C12.1028 26.7607 13.278 26.9419 14.5 26.9419C15.95 26.9419 17.3357 26.6905 18.6278 26.2345C18.5927 26.1819 18.5635 26.1234 18.5401 26.0649L14.7163 15.5875ZM25.4159 8.53044C25.4685 8.92802 25.4978 9.34899 25.4978 9.81089C25.4978 11.0738 25.2639 12.4887 24.5506 14.2661L20.7502 25.2522C24.4512 23.0948 26.9361 19.0897 26.9361 14.5C26.9361 12.3367 26.3865 10.302 25.4159 8.53044ZM29 14.5C29 22.4984 22.4925 29 14.5 29C6.50161 29 0 22.4925 0 14.5C0 6.50161 6.50161 0 14.5 0C22.4925 0 29 6.50161 29 14.5ZM28.3335 14.5C28.3335 6.86996 22.1242 0.666532 14.5 0.666532C6.86996 0.666532 0.666532 6.86996 0.666532 14.5C0.666532 22.13 6.87581 28.3335 14.5 28.3335C22.13 28.3335 28.3335 22.13 28.3335 14.5Z" fill="#22EFFC"/>
</svg>
