<svg width="24" height="27" viewBox="0 0 24 27" fill="none" xmlns="http://www.w3.org/2000/svg">
<path fill-rule="evenodd" clip-rule="evenodd" d="M15.5024 0.787121L23.9999 5.68503V15.7808C23.9999 15.7808 23.8824 17.3551 22.9393 18.9821C21.869 20.8299 20.4603 21.6074 20.4603 21.6074L12.5795 26.107V12.198L0.604688 5.31547L8.4759 0.811119C8.4759 0.811119 9.77177 0 12.0083 0C14.1561 0 15.5024 0.787121 15.5024 0.787121ZM14.4273 8.48315C12.9419 7.62644 11.1852 7.9504 11.1852 7.9504L15.584 10.4894L15.5816 15.728C15.5816 15.728 16.7911 14.2474 16.7911 12.8195C16.7911 11.0365 16.7887 9.84382 16.7887 9.84382C16.7887 9.84382 15.9128 9.33987 14.4273 8.48315ZM15.584 20.9115L18.1493 19.4405C20.5467 17.7654 21.0314 15.2217 20.9883 14.1802L20.9955 7.40806L14.8473 3.85641C14.8473 3.85641 13.609 3.23488 12.0179 3.23488C10.2853 3.23488 9.25102 3.80842 9.25102 3.80842L6.60889 5.31787L7.81597 6.0162L9.72858 4.91711C9.72858 4.91711 10.5397 4.41556 12.0275 4.41556C13.5154 4.41556 14.3433 4.9579 14.3433 4.9579L19.7884 8.09199L19.7956 14.2978C19.7956 14.9985 19.4812 17.0191 17.5806 18.3894L15.584 19.5316V20.9115ZM8.39436 14.6361L0 9.81983L0.00719928 6.35938L11.3773 12.8891V26.107L3.67883 21.6746C3.67883 21.6746 2.55094 21.0987 1.56224 19.7428C0.587941 18.4038 0.0791921 16.6735 0.0575942 16.112L8.38716 20.9043L8.38236 19.5221L0.607139 15.0417L3.61164 13.3331L8.38716 16.0712L8.39436 14.6361Z" fill="#22EFFC"/>
</svg>
