<svg width="17" height="25" viewBox="0 0 17 25" fill="none" xmlns="http://www.w3.org/2000/svg">
<path d="M0 4.67773C0 2.09473 2.0486 0 4.57472 0H12.4253C14.9514 0 17 2.09473 17 4.67773C17 6.31348 16.1787 7.75391 14.9323 8.58887C16.1787 9.42383 17 10.8643 17 12.5C17 15.083 14.9514 17.1777 12.4253 17.1777H12.325C11.1407 17.1777 10.0615 16.7188 9.24972 15.9619V20.2734C9.24972 22.8906 7.1486 25 4.5986 25C2.07725 25 0 22.9102 0 20.3223C0 18.6865 0.821348 17.2461 2.06292 16.4111C0.821348 15.5762 0 14.1357 0 12.5C0 10.8643 0.821348 9.42383 2.06292 8.58887C0.821348 7.75391 0 6.31348 0 4.67773ZM7.75028 9.35547H4.57472C2.87472 9.35547 1.49944 10.7617 1.49944 12.5C1.49944 14.2285 2.86517 15.6348 4.55562 15.6445C4.56039 15.6445 4.56994 15.6445 4.57472 15.6445H7.75028V9.35547ZM9.24972 12.5C9.24972 14.2383 10.625 15.6445 12.325 15.6445H12.4253C14.1205 15.6445 15.5006 14.2383 15.5006 12.5C15.5006 10.7617 14.1205 9.35547 12.4253 9.35547H12.325C10.625 9.35547 9.24972 10.7617 9.24972 12.5ZM4.57472 17.1777C4.56994 17.1777 4.56039 17.1777 4.55562 17.1777C2.86517 17.1875 1.49944 18.5938 1.49944 20.3223C1.49944 22.0557 2.89382 23.4668 4.5986 23.4668C6.33202 23.4668 7.75028 22.0312 7.75028 20.2734V17.1777H4.57472ZM4.57472 1.5332C2.87472 1.5332 1.49944 2.93945 1.49944 4.67773C1.49944 6.41602 2.87472 7.82227 4.57472 7.82227H7.75028V1.5332H4.57472ZM9.24972 7.82227H12.4253C14.1205 7.82227 15.5006 6.41602 15.5006 4.67773C15.5006 2.93945 14.1205 1.5332 12.4253 1.5332H9.24972V7.82227Z" fill="#22EFFC"/>
</svg>
