<svg width="28" height="25" viewBox="0 0 28 25" fill="none" xmlns="http://www.w3.org/2000/svg">
<path d="M9.625 3.0625V5.25H18.375V3.0625C18.375 2.82188 18.1781 2.625 17.9375 2.625H10.0625C9.82187 2.625 9.625 2.82188 9.625 3.0625ZM7 5.25V3.0625C7 1.37266 8.37266 0 10.0625 0H17.9375C19.6273 0 21 1.37266 21 3.0625V5.25H22.5367C23.2313 5.25 23.8984 5.52891 24.3906 6.02109L27.2289 8.85938C27.7211 9.35156 28 10.0187 28 10.7133V14.875H21V14C21 13.032 20.218 12.25 19.25 12.25C18.282 12.25 17.5 13.032 17.5 14V14.875H10.5V14C10.5 13.032 9.71797 12.25 8.75 12.25C7.78203 12.25 7 13.032 7 14V14.875H0V10.7133C0 10.0187 0.278906 9.35156 0.771094 8.85938L3.60938 6.02109C4.10156 5.52891 4.76875 5.25 5.46328 5.25H7ZM0 21V16.625H7V17.5C7 18.468 7.78203 19.25 8.75 19.25C9.71797 19.25 10.5 18.468 10.5 17.5V16.625H17.5V17.5C17.5 18.468 18.282 19.25 19.25 19.25C20.218 19.25 21 18.468 21 17.5V16.625H28V21C28 22.9305 26.4305 24.5 24.5 24.5H3.5C1.56953 24.5 0 22.9305 0 21Z" fill="#22EFFC"/>
</svg>
