<svg width="25" height="29" viewBox="0 0 25 29" fill="none" xmlns="http://www.w3.org/2000/svg">
<path d="M25 4.53125V7.25C25 9.75352 19.4029 11.7812 12.5 11.7812C5.5971 11.7812 0 9.75352 0 7.25V4.53125C0 2.02773 5.5971 0 12.5 0C19.4029 0 25 2.02773 25 4.53125ZM21.942 12.1607C23.1027 11.7416 24.1685 11.2035 25 10.5408V16.3125C25 18.816 19.4029 20.8438 12.5 20.8438C5.5971 20.8438 0 18.816 0 16.3125V10.5408C0.831473 11.2092 1.89732 11.7416 3.05804 12.1607C5.56362 13.067 8.90067 13.5938 12.5 13.5938C16.0993 13.5938 19.4364 13.067 21.942 12.1607ZM0 19.6033C0.831473 20.2717 1.89732 20.8041 3.05804 21.2232C5.56362 22.1295 8.90067 22.6562 12.5 22.6562C16.0993 22.6562 19.4364 22.1295 21.942 21.2232C23.1027 20.8041 24.1685 20.266 25 19.6033V24.4688C25 26.9723 19.4029 29 12.5 29C5.5971 29 0 26.9723 0 24.4688V19.6033Z" fill="#22EFFC"/>
</svg>
