<svg width="25" height="25" viewBox="0 0 25 25" fill="none" xmlns="http://www.w3.org/2000/svg">
<path d="M0 0V25H25V0H0ZM13.6049 19.4978C13.6049 21.9308 12.1763 23.0413 10.0949 23.0413C8.21428 23.0413 7.12612 22.0703 6.56808 20.8929L8.48214 19.7377C8.85045 20.3906 9.18527 20.9431 9.99442 20.9431C10.7645 20.9431 11.2556 20.6417 11.2556 19.4643V11.4788H13.6049V19.4978ZM19.1629 23.0413C16.981 23.0413 15.5692 22.0033 14.8828 20.6417L16.7969 19.5368C17.2991 20.3571 17.9576 20.9654 19.1127 20.9654C20.0837 20.9654 20.7087 20.4799 20.7087 19.8047C20.7087 19.0011 20.0725 18.7165 18.9955 18.2422L18.4096 17.9911C16.7132 17.2712 15.5915 16.3616 15.5915 14.4475C15.5915 12.6842 16.9364 11.3449 19.029 11.3449C20.5246 11.3449 21.596 11.8638 22.3661 13.2254L20.5357 14.3973C20.1339 13.6775 19.6987 13.3929 19.0234 13.3929C18.3371 13.3929 17.9018 13.8281 17.9018 14.3973C17.9018 15.1004 18.3371 15.385 19.3471 15.8259L19.933 16.077C21.9308 16.9308 23.0525 17.8069 23.0525 19.7712C23.0525 21.8806 21.3895 23.0413 19.1629 23.0413Z" fill="#22EFFC"/>
</svg>
