<svg width="25" height="25" viewBox="0 0 25 25" fill="none" xmlns="http://www.w3.org/2000/svg">
<path fill-rule="evenodd" clip-rule="evenodd" d="M2.44141 0H22.5586C23.9069 0 25 1.09305 25 2.44141V22.5586C25 23.9069 23.9069 25 22.5586 25H2.44141C1.09305 25 0 23.9069 0 22.5586V2.44141C0 1.09305 1.09305 0 2.44141 0ZM15.4842 22.3339V19.8782C15.9268 20.2517 16.4076 20.5318 16.9265 20.7185C17.4455 20.9052 17.9694 20.9986 18.4986 20.9986C18.8089 20.9986 19.0798 20.9704 19.3113 20.9141C19.5428 20.8579 19.7361 20.7799 19.8913 20.6801C20.0465 20.5803 20.1622 20.4627 20.2385 20.3271C20.3148 20.1915 20.353 20.0444 20.353 19.8859C20.353 19.6709 20.292 19.4791 20.1699 19.3103C20.0477 19.1415 19.8811 18.9854 19.67 18.8422C19.4589 18.6989 19.2083 18.5608 18.9183 18.4278C18.6283 18.2947 18.3154 18.1592 17.9796 18.0211C17.1249 17.6629 16.4877 17.2255 16.068 16.7088C15.6482 16.1921 15.4384 15.5679 15.4384 14.8363C15.4384 14.2633 15.5529 13.7709 15.7818 13.3591C16.0107 12.9472 16.3223 12.6083 16.7166 12.3422C17.1109 12.0762 17.5676 11.8805 18.0865 11.7552C18.6054 11.6299 19.1549 11.5672 19.7349 11.5672C20.3047 11.5672 20.8096 11.6017 21.2497 11.6708C21.6898 11.7399 22.0955 11.846 22.4669 11.9892V14.2838C22.2838 14.1559 22.0841 14.0433 21.8679 13.9461C21.6516 13.8489 21.4291 13.7683 21.2001 13.7044C20.9711 13.6405 20.7435 13.5931 20.5171 13.5624C20.2907 13.5318 20.0757 13.5164 19.8722 13.5164C19.5924 13.5164 19.338 13.5432 19.1091 13.5969C18.8801 13.6507 18.6868 13.7262 18.5291 13.8233C18.3714 13.9206 18.2493 14.0369 18.1628 14.1725C18.0763 14.3081 18.033 14.4603 18.033 14.6291C18.033 14.8133 18.0814 14.9783 18.1781 15.1241C18.2747 15.2699 18.4121 15.408 18.5901 15.5385C18.7682 15.669 18.9844 15.7968 19.2388 15.9222C19.4932 16.0476 19.7807 16.1767 20.1012 16.3097C20.5387 16.4939 20.9317 16.6896 21.2802 16.8968C21.6287 17.104 21.9276 17.3381 22.1769 17.599C22.4262 17.8599 22.617 18.1579 22.7493 18.493C22.8816 18.8281 22.9477 19.2182 22.9477 19.6633C22.9477 20.2772 22.8319 20.7926 22.6005 21.2096C22.369 21.6265 22.0548 21.9642 21.658 22.2226C21.2612 22.4809 20.7994 22.6664 20.2729 22.7789C19.7463 22.8915 19.1905 22.9478 18.6054 22.9478C18.005 22.9478 17.434 22.8966 16.8922 22.7943C16.3503 22.692 15.881 22.5385 15.4842 22.3339ZM14.5119 13.8277H11.3804V22.8006H8.89969V13.8277H5.78352V11.8125H14.5119V13.8277Z" fill="#22EFFC"/>
</svg>
