<svg width="28" height="28" viewBox="0 0 28 28" fill="none" xmlns="http://www.w3.org/2000/svg">
<path d="M14.0031 6.81963C10.0303 6.81963 6.82588 10.0241 6.82588 13.9969C6.82588 17.9697 10.0303 21.1741 14.0031 21.1741C17.9759 21.1741 21.1804 17.9697 21.1804 13.9969C21.1804 10.0241 17.9759 6.81963 14.0031 6.81963ZM14.0031 18.663C11.4358 18.663 9.33698 16.5704 9.33698 13.9969C9.33698 11.4233 11.4296 9.33073 14.0031 9.33073C16.5767 9.33073 18.6693 11.4233 18.6693 13.9969C18.6693 16.5704 16.5704 18.663 14.0031 18.663ZM23.148 6.52605C23.148 7.45678 22.3984 8.20011 21.474 8.20011C20.5432 8.20011 19.7999 7.45053 19.7999 6.52605C19.7999 5.60156 20.5495 4.85198 21.474 4.85198C22.3984 4.85198 23.148 5.60156 23.148 6.52605ZM27.9016 8.2251C27.7954 5.9826 27.2832 3.99621 25.6404 2.35962C24.0038 0.723034 22.0174 0.21082 19.7749 0.0983826C17.4637 -0.0327942 10.5363 -0.0327942 8.2251 0.0983826C5.98885 0.204573 4.00245 0.716787 2.35962 2.35337C0.716788 3.98996 0.21082 5.97635 0.0983826 8.21885C-0.0327942 10.5301 -0.0327942 17.4574 0.0983826 19.7687C0.204573 22.0112 0.716788 23.9975 2.35962 25.6341C4.00245 27.2707 5.9826 27.7829 8.2251 27.8954C10.5363 28.0265 17.4637 28.0265 19.7749 27.8954C22.0174 27.7892 24.0038 27.277 25.6404 25.6341C27.277 23.9975 27.7892 22.0112 27.9016 19.7687C28.0328 17.4574 28.0328 10.5363 27.9016 8.2251ZM24.9158 22.2485C24.4286 23.4728 23.4853 24.4161 22.2548 24.9095C20.412 25.6404 16.0395 25.4717 14.0031 25.4717C11.9668 25.4717 7.58795 25.6341 5.75148 24.9095C4.52716 24.4223 3.58394 23.4791 3.09046 22.2485C2.35962 20.4058 2.52828 16.0332 2.52828 13.9969C2.52828 11.9605 2.36587 7.58171 3.09046 5.74523C3.57769 4.52091 4.52091 3.57769 5.75148 3.08422C7.5942 2.35337 11.9668 2.52203 14.0031 2.52203C16.0395 2.52203 20.4183 2.35962 22.2548 3.08422C23.4791 3.57144 24.4223 4.51467 24.9158 5.74523C25.6466 7.58795 25.478 11.9605 25.478 13.9969C25.478 16.0332 25.6466 20.412 24.9158 22.2485Z" fill="#22EFFC"/>
</svg>
