<svg width="28" height="28" viewBox="0 0 28 28" fill="none" xmlns="http://www.w3.org/2000/svg">
<path d="M6.26875 28H0.4625V9.30625H6.26875V28ZM3.3625 6.75625C1.50625 6.75625 0 5.21875 0 3.3625C0 2.47071 0.354262 1.61544 0.984853 0.984853C1.61544 0.354262 2.47071 0 3.3625 0C4.25429 0 5.10956 0.354262 5.74015 0.984853C6.37074 1.61544 6.725 2.47071 6.725 3.3625C6.725 5.21875 5.21875 6.75625 3.3625 6.75625ZM27.9937 28H22.2V18.9C22.2 16.7312 22.1562 13.95 19.1812 13.95C16.1625 13.95 15.7 16.3062 15.7 18.7437V28H9.9V9.30625H15.4688V11.8562H15.55C16.325 10.3875 18.2188 8.8375 21.0438 8.8375C26.9188 8.8375 28 12.7063 28 17.7313V28H27.9937Z" fill="#22EFFC"/>
</svg>
