<svg width="28" height="28" viewBox="0 0 28 28" fill="none" xmlns="http://www.w3.org/2000/svg">
<path fill-rule="evenodd" clip-rule="evenodd" d="M13.3913 0H14.6087V3.65217H13.3913V0ZM23.1304 14C23.1304 19.0426 19.0426 23.1304 14 23.1304C8.9574 23.1304 4.86957 19.0426 4.86957 14C4.86957 8.9574 8.9574 4.86957 14 4.86957C19.0426 4.86957 23.1304 8.9574 23.1304 14ZM14.6087 28V24.3478H13.3913V28H14.6087ZM20.4727 1.57137L21.527 2.18007L19.7009 5.34295L18.6467 4.73425L20.4727 1.57137ZM9.35312 23.266L8.29883 22.6573L6.47274 25.8201L7.52703 26.4288L9.35312 23.266ZM25.8199 6.47274L26.4286 7.52703L23.2658 9.35312L22.6571 8.29883L25.8199 6.47274ZM5.34273 19.7009L4.73404 18.6467L1.57116 20.4727L2.17986 21.527L5.34273 19.7009ZM28 14.6087H24.3478V13.3913H28V14.6087ZM3.65217 14.6087V13.3913H0V14.6087H3.65217ZM26.4286 20.4727L25.8199 21.527L22.6571 19.7009L23.2657 18.6467L26.4286 20.4727ZM4.73404 9.35312L5.34273 8.29883L2.17986 6.47274L1.57116 7.52703L4.73404 9.35312ZM21.5273 25.8199L20.473 26.4286L18.6469 23.2658L19.7012 22.6571L21.5273 25.8199ZM8.29905 5.34273L9.35335 4.73404L7.52726 1.57116L6.47297 2.17986L8.29905 5.34273Z" fill="white"/>
</svg>
